<svg width="81" height="23" viewBox="0 0 81 23" fill="none" xmlns="http://www.w3.org/2000/svg">
<path d="M15.6614 0.767585C15.4945 0.881264 15.3276 0.994943 15.1607 1.10862C14.9957 1.21233 14.8543 1.35648 14.7365 1.54108C14.6121 1.53882 14.4818 1.54062 14.3454 1.54648C14.2091 1.55235 14.0806 1.54418 13.96 1.52198C13.8795 1.50718 13.8009 1.48241 13.7242 1.44767C13.6494 1.40297 13.5717 1.37321 13.4913 1.35841C13.4209 1.34546 13.3792 1.37388 13.3661 1.44367C13.353 1.51346 13.3227 1.56459 13.275 1.59707C13.2001 1.55237 13.1184 1.5167 13.0298 1.49008C12.9411 1.46347 12.8516 1.44183 12.761 1.42518C12.5499 1.38634 12.3322 1.38239 12.1079 1.41333C11.8956 1.43615 11.6805 1.47392 11.4626 1.52666C11.2466 1.56942 11.0296 1.61716 10.8117 1.66989C10.5938 1.72262 10.3746 1.75449 10.1541 1.76549C10.1623 1.77731 10.1626 1.80316 10.1552 1.84304C10.1421 1.91283 10.1108 1.96895 10.0613 2.0114C10.0136 2.04388 9.9832 2.09501 9.97013 2.1648L9.96174 2.20966C10.0339 2.49108 10.1079 2.76252 10.1838 3.02399C10.2597 3.28546 10.3287 3.55598 10.3908 3.83554C10.4269 3.97625 10.4538 4.11012 10.4717 4.23715C10.4895 4.36419 10.5105 4.50212 10.5347 4.65095C10.5398 4.73441 10.5648 4.79571 10.6095 4.83487C10.656 4.86406 10.6998 4.90821 10.7407 4.9673C10.7094 5.02342 10.6891 5.07641 10.6797 5.12625C10.6443 5.31568 10.655 5.50844 10.7119 5.70455C10.7707 5.89068 10.7833 6.07348 10.7497 6.25293C10.7404 6.30278 10.7182 6.36574 10.6832 6.44179C10.7721 6.63348 10.8212 6.84361 10.8305 7.0722C10.8397 7.30078 10.843 7.53342 10.8403 7.77013C10.8395 7.99686 10.8386 8.2236 10.8378 8.45033C10.8489 8.66895 10.8989 8.87409 10.9879 9.06578C10.8951 9.17247 10.8256 9.29375 10.7794 9.42963C10.735 9.55553 10.6997 9.68827 10.6736 9.82785C10.6139 10.1469 10.5835 10.4764 10.5822 10.8166C10.5929 11.1485 10.5684 11.474 10.5087 11.7931C10.4676 12.0124 10.4089 12.1872 10.3325 12.3176C10.3246 12.4708 10.3544 12.5897 10.4218 12.6743C10.3685 12.7367 10.3375 12.8187 10.3289 12.9202C10.3222 13.0118 10.2872 13.0879 10.2238 13.1484C10.2368 13.357 10.2274 13.5461 10.1957 13.7156C10.1491 13.9648 10.0672 14.2076 9.95018 14.4439C9.84507 14.6721 9.76825 14.9158 9.71974 15.175C9.70668 15.2448 9.69958 15.3105 9.69844 15.3722C9.69544 15.4438 9.70156 15.5223 9.7168 15.6076C9.68549 15.6637 9.63874 15.6912 9.57654 15.6901C9.52253 15.7008 9.4808 15.7292 9.45136 15.7753L9.44296 15.8202C9.41498 15.9697 9.37061 16.0956 9.30986 16.1979C9.25731 16.312 9.19656 16.4143 9.12762 16.5047L8.9331 16.7938C8.87235 16.8961 8.81477 17.0092 8.76034 17.1333C8.47277 17.2248 8.19619 17.3131 7.9306 17.3983C7.67506 17.4854 7.41615 17.6182 7.15388 17.7969C7.11179 17.7994 7.05052 17.7933 6.97008 17.7785C6.89969 17.7656 6.83023 17.7476 6.7617 17.7247C6.69131 17.7118 6.6159 17.6979 6.53545 17.6831C6.42484 17.6628 6.3064 17.6564 6.18013 17.6641C6.04722 17.485 5.87166 17.3393 5.65344 17.2269C5.43335 17.1246 5.23301 17 5.05242 16.8534C4.99882 16.7507 4.9333 16.6561 4.85586 16.5697L4.62354 16.3104C4.5461 16.224 4.47368 16.1385 4.4063 16.0539C4.33891 15.9693 4.28532 15.8666 4.2455 15.7458L4.03433 15.707C4.0362 15.697 4.03806 15.687 4.03993 15.6771C4.05185 15.669 4.05875 15.6599 4.06061 15.6499C4.06994 15.6001 4.0504 15.5656 4.00199 15.5463C3.95357 15.5271 3.94502 15.4895 3.97633 15.4333C3.87245 15.3214 3.79148 15.1982 3.73343 15.0638C3.67537 14.9294 3.61825 14.7899 3.56205 14.6455C3.504 14.5111 3.44594 14.3767 3.38789 14.2422C3.32796 14.1178 3.24606 13.9996 3.14219 13.8876L3.14778 13.8577C3.15711 13.8079 3.14763 13.7752 3.11933 13.7597C3.09289 13.7342 3.09719 13.6834 3.13223 13.6074C3.01052 13.3684 2.91581 13.1241 2.84811 12.8744C2.78041 12.6248 2.71867 12.3711 2.6629 12.1133C2.61904 11.8474 2.56922 11.5856 2.51344 11.3278C2.46772 11.0719 2.40002 10.8222 2.31034 10.5788C2.30889 10.4754 2.31749 10.3739 2.33615 10.2742L2.39212 9.9751C2.44623 9.68598 2.52268 9.41644 2.62147 9.16647C2.72213 8.90654 2.86617 8.6649 3.05359 8.44155C3.13777 8.43641 3.2292 8.44807 3.3279 8.47654C3.43851 8.49689 3.53907 8.51539 3.62957 8.53204C3.72007 8.54869 3.80648 8.55942 3.88879 8.56425C3.98302 8.56096 4.07187 8.5309 4.15532 8.47406C4.1378 8.51209 4.14225 8.54385 4.16869 8.56933C4.19699 8.58485 4.22623 8.59539 4.25639 8.60094C4.30667 8.61019 4.35286 8.61353 4.39495 8.61096C4.44896 8.60026 4.5011 8.59954 4.55138 8.60879C4.57149 8.61249 4.5957 8.6221 4.624 8.63762C4.66236 8.65499 4.67687 8.6886 4.66754 8.73845C4.73161 8.72961 4.79158 8.71486 4.84745 8.6942C4.90333 8.67354 4.96423 8.6538 5.03017 8.63499C5.17313 8.81599 5.35279 8.96764 5.56914 9.08994C5.78736 9.20228 6.01061 9.31554 6.23889 9.42972C6.46903 9.53393 6.69228 9.64719 6.90864 9.7695C7.12686 9.88183 7.31341 10.0244 7.4683 10.1973C7.49992 10.3063 7.50547 10.4156 7.48494 10.5252C7.45322 10.6947 7.35485 10.8313 7.18981 10.935C7.02664 11.0288 6.85994 11.0858 6.68972 11.106C6.48829 10.9039 6.2483 10.7412 5.96974 10.6178C5.70124 10.4962 5.45342 10.3475 5.22629 10.1716C5.01024 10.2144 4.78062 10.2185 4.53742 10.1841C4.30614 10.1416 4.07801 10.1099 3.85306 10.0892C3.79531 10.1198 3.76214 10.1859 3.75354 10.2874C3.75499 10.3908 3.72592 10.4628 3.66631 10.5034C3.72427 10.9163 3.82431 11.3266 3.96645 11.7343C4.11045 12.1321 4.23248 12.5361 4.33253 12.9464C4.34144 13.0099 4.36824 13.0613 4.41292 13.1004C4.45947 13.1296 4.50508 13.1638 4.54977 13.2029L4.54137 13.2478C4.53017 13.3076 4.53686 13.3553 4.56143 13.3907C4.58787 13.4162 4.58357 13.467 4.54853 13.543C4.66547 13.5852 4.73881 13.6657 4.76857 13.7846C4.80838 13.9054 4.85099 14.0112 4.8964 14.102C4.92729 14.1593 4.95912 14.2116 4.99188 14.2588C5.03469 14.308 5.07155 14.3612 5.10244 14.4184C5.23794 14.6393 5.38665 14.8729 5.54859 15.1193C5.71052 15.3656 5.89184 15.564 6.09254 15.7143C6.11898 15.7398 6.14225 15.7544 6.16236 15.7581C6.19253 15.7637 6.22177 15.7742 6.25007 15.7897C6.34948 15.8699 6.45989 15.9469 6.58129 16.0208C6.70082 16.1047 6.83097 16.1596 6.97175 16.1855C7.04214 16.1984 7.11533 16.1964 7.19132 16.1795C7.27736 16.1643 7.33697 16.1237 7.37014 16.0577C7.43721 15.9772 7.492 15.879 7.5345 15.763C7.58519 15.6589 7.62992 15.5589 7.66869 15.4629C7.80325 15.1885 7.93277 14.9133 8.05727 14.6371C8.19183 14.3628 8.3113 14.0857 8.41568 13.8058C8.41983 13.6725 8.429 13.5401 8.4432 13.4087C8.4574 13.2772 8.47663 13.1467 8.50088 13.0171C8.54379 12.7878 8.59174 12.5594 8.6447 12.3319C8.70773 12.1063 8.7607 11.8789 8.80361 11.6496C8.84279 11.4402 8.86596 11.2331 8.87311 11.0281C8.89218 10.815 8.88015 10.6014 8.83702 10.3872C8.86459 10.351 8.89533 10.3258 8.92923 10.3114C8.96313 10.297 8.98474 10.2649 8.99407 10.215C9.00527 10.1552 9.00008 10.0717 8.97852 9.96463C8.96887 9.84942 8.94171 9.77223 8.89703 9.73307C8.98608 9.64632 9.04459 9.52818 9.07258 9.37863C9.1043 9.20914 9.11088 9.03503 9.09232 8.8563C9.07376 8.67756 9.08034 8.50345 9.11206 8.33397C9.13258 8.2243 9.16819 8.11741 9.21888 8.01329C9.23194 7.9435 9.20328 7.90213 9.13288 7.88918C9.06249 7.87623 9.0288 7.83394 9.03181 7.7623C9.03554 7.74236 9.03927 7.72242 9.043 7.70248C9.05679 7.68439 9.06555 7.66538 9.06928 7.64544C9.09354 7.51583 9.09581 7.3925 9.07611 7.27543C9.06834 7.15024 9.07155 7.02192 9.08575 6.89047C9.0139 6.77412 8.97186 6.63747 8.95963 6.48053C8.94739 6.32358 8.93515 6.16664 8.92292 6.00969C8.91255 5.84277 8.89528 5.6849 8.87113 5.53608C8.84697 5.38725 8.78798 5.2578 8.69416 5.14773C8.71841 5.01812 8.72349 4.87983 8.70939 4.73285C8.70534 4.58772 8.63853 4.4723 8.50894 4.38659C8.49152 4.14618 8.45119 3.91704 8.38795 3.69914C8.32471 3.48125 8.22254 3.27682 8.08144 3.08586C8.12622 2.84658 8.11046 2.65289 8.03416 2.50479C7.96791 2.35853 7.88026 2.18771 7.77119 1.99233C7.53618 1.96972 7.2965 1.97204 7.05216 1.99928C6.80782 2.02652 6.57 2.01887 6.33872 1.97632C6.27839 1.96523 6.21805 1.95413 6.15772 1.94303C6.1093 1.92381 6.05586 1.90366 5.99739 1.8826C5.94152 1.90326 5.90202 1.94755 5.87891 2.01549C5.85766 2.07346 5.84237 2.12737 5.83304 2.17722C5.6483 2.16386 5.4658 2.16638 5.28552 2.18479C5.10711 2.19322 4.92274 2.20571 4.7324 2.22226C4.55399 2.23069 4.37651 2.23414 4.19997 2.2326C4.02342 2.23106 3.84558 2.20866 3.66644 2.16539C3.56993 2.29202 3.45165 2.36824 3.3116 2.39404C3.17341 2.40987 3.02703 2.41388 2.87246 2.40607C2.72795 2.40011 2.5825 2.39914 2.43613 2.40315C2.28975 2.40716 2.16701 2.45162 2.0679 2.53652C2.03514 2.48924 1.9886 2.46005 1.92826 2.44895C1.84782 2.43415 1.76867 2.44022 1.69081 2.46715C1.6029 2.49223 1.5137 2.49644 1.4232 2.47979C1.35281 2.46685 1.30123 2.43673 1.26847 2.38945C1.18875 2.42635 1.10587 2.45236 1.01983 2.46747C0.925593 2.47076 0.845873 2.50766 0.780668 2.57817C0.615318 2.51681 0.476609 2.42426 0.364542 2.30052C0.252475 2.17677 0.16928 2.03771 0.114955 1.88333C0.050574 1.72711 0.0131986 1.56554 0.00282837 1.39862C-0.00567608 1.22174 0.0049981 1.05354 0.0348509 0.894021C0.115709 0.795453 0.225232 0.738253 0.36342 0.722422C0.501608 0.706591 0.620255 0.656226 0.719359 0.571327C0.784152 0.614186 0.848944 0.657044 0.913737 0.699902C0.97034 0.73094 1.03886 0.753859 1.11931 0.768658C1.21987 0.787156 1.30907 0.78294 1.38693 0.75601C1.46478 0.72908 1.54393 0.723014 1.62438 0.737813C1.67466 0.747062 1.72716 0.772191 1.7819 0.813199C1.86349 0.76633 1.95549 0.747159 2.05791 0.755688C2.1622 0.754247 2.26053 0.756866 2.3529 0.763545C2.45719 0.762103 2.55235 0.753828 2.6384 0.738717C2.72444 0.723607 2.79188 0.668977 2.8407 0.574829C2.92561 0.621387 3.01834 0.653915 3.11889 0.672414C3.23956 0.694612 3.36303 0.701855 3.4893 0.694144C3.61743 0.676463 3.73551 0.656932 3.84353 0.635552C3.95155 0.614171 4.04858 0.595926 4.13462 0.580815C4.22253 0.555735 4.28157 0.545969 4.31174 0.551519C4.36202 0.560768 4.4095 0.584972 4.45418 0.62413C4.50073 0.653319 4.54914 0.672538 4.59942 0.681787C4.69998 0.700286 4.8011 0.68795 4.9028 0.64478C5.01455 0.60346 5.11625 0.56029 5.20789 0.51527C5.28087 0.569948 5.35256 0.603761 5.42295 0.61671C5.56373 0.642608 5.71197 0.628627 5.86768 0.574766C6.03344 0.522756 6.2018 0.512474 6.37275 0.543922C6.44314 0.556871 6.49751 0.57203 6.53587 0.589399C6.78767 0.522278 7.08286 0.473451 7.42144 0.442918C7.77007 0.414235 8.07511 0.423941 8.33656 0.472037C8.49973 0.378298 8.68151 0.324078 8.8819 0.309376C9.08229 0.294674 9.28584 0.290867 9.49255 0.297954C9.69927 0.305042 9.90282 0.301235 10.1032 0.286533C10.3136 0.273681 10.5105 0.222235 10.6938 0.132196C10.7403 0.161384 10.7979 0.187438 10.8664 0.210357C10.9368 0.223306 10.9833 0.252494 11.006 0.297923C11.0601 0.287233 11.1018 0.258813 11.1312 0.212664C11.1607 0.166515 11.1851 0.119441 11.2045 0.0714418C11.2164 0.0633219 11.2374 0.0620367 11.2676 0.0675862C11.3179 0.0768354 11.3342 0.100475 11.3167 0.138504C11.2992 0.176533 11.3156 0.200172 11.3659 0.209421C11.396 0.214971 11.4491 0.209266 11.5251 0.192305C11.613 0.167225 11.716 0.144919 11.8341 0.125389C11.9522 0.105858 12.0794 0.0931618 12.2157 0.0873004C12.3539 0.0714694 12.4833 0.0746529 12.604 0.096851L12.6643 0.10795L12.7425 0.106869C12.7965 0.0961789 12.8546 0.0913984 12.9168 0.0925277C12.9809 0.0836872 13.0399 0.0739219 13.0939 0.0632316C13.158 0.0543911 13.2001 0.0518207 13.2202 0.0555204C13.4545 0.0264286 13.6919 0.00823152 13.9326 0.0009291C14.1832 -0.00452347 14.4242 0.0140234 14.6555 0.0565698C14.8767 0.0972663 15.0754 0.175067 15.2515 0.289972C15.4295 0.394908 15.5662 0.554112 15.6614 0.767585Z" fill="#2D2D2D"/>
<path d="M23.4384 8.81915C23.3612 8.89778 23.3074 8.991 23.2768 9.09882C23.2462 9.20664 23.2225 9.30541 23.2057 9.39514C23.1833 9.51478 23.161 9.63441 23.1386 9.75405C23.1281 9.86557 23.1126 9.97616 23.0921 10.0858L23.0501 10.3101C23.0169 10.3762 22.9737 10.4405 22.9204 10.5029C22.8671 10.5653 22.8239 10.6295 22.7907 10.6956C22.5809 11.0386 22.4415 11.3945 22.3725 11.7634L22.3669 11.7933C22.2942 11.9037 22.2234 12.0041 22.1545 12.0945C22.0956 12.1868 22.0367 12.2791 21.9778 12.3714C21.9208 12.4538 21.872 12.5479 21.8313 12.6539C21.7926 12.7499 21.7651 12.8686 21.7491 13.01C21.543 13.3331 21.2973 13.6179 21.0119 13.8644C20.7283 14.1011 20.448 14.3486 20.1708 14.607C19.9447 14.6479 19.729 14.7165 19.5237 14.8128C19.3285 14.9109 19.1356 15.025 18.9448 15.1549C18.6144 15.1973 18.2863 15.2555 17.9604 15.3296C17.6344 15.4037 17.3303 15.5282 17.0479 15.7032C16.8531 15.688 16.6564 15.6827 16.4579 15.6875C16.2594 15.6922 16.0622 15.7178 15.8662 15.7642L15.6852 15.731C15.5947 15.7143 15.5331 15.6823 15.5003 15.6351C15.3566 15.6808 15.2115 15.7057 15.0651 15.7097C14.9206 15.7037 14.7779 15.6878 14.6372 15.6619C14.4562 15.6286 14.277 15.5853 14.0997 15.5321C13.9344 15.4707 13.764 15.4085 13.5886 15.3453C13.5142 15.1872 13.393 15.0566 13.225 14.9535C13.059 14.8405 12.9121 14.7361 12.7843 14.6404C12.5674 14.188 12.428 13.7653 12.3663 13.3724C12.3065 12.9695 12.25 12.5208 12.197 12.0263C12.2432 11.8904 12.3036 11.7623 12.3781 11.6419C12.4545 11.5116 12.5026 11.3658 12.5224 11.2044C12.8004 10.7193 13.1244 10.2942 13.4944 9.92908C13.8763 9.55588 14.2947 9.21001 14.7496 8.89149C14.7608 8.83167 14.7802 8.78367 14.8077 8.74749C14.8454 8.71316 14.8616 8.65427 14.8564 8.57081C14.8646 8.58263 14.8838 8.59131 14.914 8.59686C14.9944 8.61166 15.0484 8.60097 15.076 8.56479C15.1054 8.51864 15.1207 8.46473 15.1219 8.40306C15.5268 8.24035 15.903 8.03628 16.2506 7.79083C16.6083 7.54723 16.9968 7.36088 17.4162 7.23178C17.4632 7.1476 17.5275 7.08208 17.6091 7.03521C17.6906 6.98834 17.759 6.92873 17.8142 6.85637C18.1527 6.82583 18.4695 6.74489 18.7646 6.61353C19.0596 6.48217 19.366 6.37352 19.6837 6.28759C19.8614 6.22746 20.0235 6.19539 20.1698 6.19138C20.3281 6.17925 20.4965 6.16897 20.6749 6.16053C20.739 6.15169 20.7971 6.14691 20.8492 6.14619C20.9014 6.14547 20.9576 6.15066 21.0179 6.16176C21.1989 6.19506 21.3684 6.26232 21.5263 6.36356C21.686 6.45482 21.8564 6.51711 22.0374 6.5504C22.0877 6.55965 22.1279 6.56705 22.1581 6.5726C22.2002 6.57003 22.2422 6.56746 22.2843 6.56489C22.4161 6.8057 22.6024 7.00499 22.8434 7.16275C22.8757 7.3234 22.9219 7.46596 22.9818 7.59042C23.0518 7.71674 23.1217 7.84305 23.1917 7.96937C23.2636 8.08572 23.3225 8.21517 23.3687 8.35772C23.4267 8.49216 23.45 8.64597 23.4384 8.81915ZM21.7845 9.31932C21.7938 9.26947 21.7972 9.22368 21.7946 9.18195C21.6996 9.13354 21.6115 9.07609 21.5304 9.00959C21.4492 8.9431 21.3533 8.89967 21.2427 8.87933C21.1723 8.86638 21.0991 8.86838 21.0231 8.88534C21.0261 8.81371 21.0053 8.75831 20.9606 8.71915C20.926 8.68184 20.8804 8.64767 20.8238 8.61663C20.7791 8.57747 20.7275 8.54735 20.669 8.52629C20.6225 8.4971 20.5828 8.45886 20.5501 8.41159C20.5348 8.32628 20.5146 8.24005 20.4893 8.15289C20.4759 8.05761 20.4277 7.98171 20.3446 7.92518C20.2374 7.99826 20.1178 8.05361 19.9859 8.09123C19.8559 8.11888 19.7209 8.14561 19.5808 8.17141C19.4508 8.19906 19.319 8.23668 19.1852 8.28427C19.0616 8.33371 18.9502 8.40088 18.8511 8.48578L18.5796 8.43583C18.4987 8.5344 18.3974 8.60342 18.2756 8.64289C18.1556 8.67239 18.0461 8.72959 17.947 8.81449C17.7712 8.86465 17.6017 8.9366 17.4385 9.03034C17.2873 9.11596 17.1342 9.21155 16.9792 9.31711C16.8261 9.41269 16.672 9.51327 16.517 9.61883C16.3721 9.72624 16.219 9.82183 16.0577 9.90559C15.8747 10.1607 15.6832 10.3781 15.4831 10.5579C15.295 10.7296 15.1109 10.9071 14.931 11.0906C14.761 11.2759 14.6025 11.4839 14.4553 11.7147C14.32 11.9373 14.2188 12.2281 14.1516 12.587L14.1236 12.7365C14.1143 12.7864 14.11 12.8371 14.1107 12.8888C14.2153 13.0525 14.2929 13.2214 14.3435 13.3958C14.4042 13.5719 14.5285 13.7134 14.7166 13.8202C14.9028 13.9369 15.1074 14.0107 15.3305 14.0414C15.5636 14.074 15.7802 14.1396 15.9802 14.2383C16.4797 14.2373 16.9693 14.1779 17.449 14.0599C17.9407 13.9337 18.4147 13.7631 18.8711 13.548C18.9407 13.5092 19.0205 13.4723 19.1102 13.4373C19.2019 13.3923 19.2784 13.3445 19.3399 13.2939C19.3995 13.2533 19.45 13.2059 19.4914 13.1516C19.5428 13.0992 19.5933 13.0517 19.6428 13.0093C19.7475 12.8945 19.8623 12.7815 19.9871 12.6704C20.1119 12.5593 20.2399 12.4591 20.371 12.3698C20.4623 12.1597 20.5669 11.9623 20.6847 11.7778C20.8043 11.5832 20.923 11.3936 21.0407 11.209C21.1585 11.0244 21.2621 10.8321 21.3516 10.6319C21.4511 10.4337 21.5223 10.2199 21.5652 9.99058C21.5745 9.94073 21.5798 9.88498 21.5809 9.82331C21.5921 9.76349 21.5973 9.70773 21.5966 9.65603C21.6976 9.56116 21.7602 9.44893 21.7845 9.31932Z" fill="#2D2D2D"/>
<path d="M33.5779 12.417C33.519 12.5093 33.461 12.5966 33.404 12.6789C33.347 12.7613 33.2982 12.8554 33.2575 12.9614C33.1778 12.9983 33.0899 13.0233 32.9938 13.0366C32.9096 13.0417 32.8195 13.051 32.7234 13.0642C32.6292 13.0675 32.5381 13.0817 32.4502 13.1068C32.3742 13.1237 32.3096 13.1634 32.2563 13.2258C32.1981 13.3698 32.1569 13.5066 32.1327 13.6362C32.1009 13.8057 32.1041 13.9558 32.142 14.0865C32.095 14.1707 32.0572 14.2617 32.0285 14.3596C31.9998 14.4574 31.977 14.5512 31.9602 14.6409C31.8987 14.9699 31.8773 15.3063 31.8962 15.6501C31.9169 15.984 31.9015 16.3163 31.85 16.6472C31.8407 16.697 31.8254 16.7509 31.8042 16.8089C31.7829 16.8669 31.7676 16.9208 31.7583 16.9706C31.7191 17.18 31.7734 17.3344 31.9213 17.4337C31.8818 17.478 31.8583 17.5201 31.8508 17.56C31.8359 17.6398 31.8329 17.7114 31.8418 17.7749C31.8507 17.8384 31.8436 17.9042 31.8205 17.9721C31.8521 18.0811 31.8856 18.18 31.921 18.269C31.9582 18.3481 31.9766 18.4443 31.9762 18.5576C31.8797 18.6843 31.7699 18.7982 31.647 18.8993C31.5259 18.9905 31.4294 19.1171 31.3575 19.2792C31.3191 19.2618 31.2748 19.2485 31.2245 19.2393C31.1541 19.2263 31.096 19.2311 31.0502 19.2536C31.0044 19.2761 30.9626 19.3045 30.925 19.3389C30.8956 19.385 30.862 19.4252 30.8244 19.4596C30.7849 19.5039 30.7382 19.5314 30.6841 19.5421L30.6389 19.5337C30.5867 19.5344 30.5424 19.5211 30.5059 19.4938C30.4776 19.4783 30.4484 19.4677 30.4182 19.4622C30.3981 19.4585 30.356 19.4611 30.292 19.4699C30.2302 19.3554 30.1973 19.2256 30.1932 19.0805C30.1873 18.9453 30.1965 18.8129 30.2207 18.6833C30.2469 18.5438 30.2903 18.4228 30.351 18.3206C30.2572 18.2105 30.212 18.0629 30.2154 17.8779C30.2289 17.6948 30.2317 17.5406 30.224 17.4154C30.2126 17.0317 30.1842 16.6553 30.1389 16.286C30.1036 15.9185 30.1105 15.5485 30.1594 15.1759C30.1755 15.0345 30.1956 14.899 30.2199 14.7694L30.3654 13.9918C30.3897 13.8621 30.418 13.7384 30.4505 13.6207C30.4672 13.5309 30.4881 13.4471 30.5131 13.3692C30.55 13.2832 30.5769 13.1953 30.5937 13.1056C30.6161 12.9859 30.5973 12.8639 30.5374 12.7394C29.8178 12.638 29.1148 12.6427 28.4283 12.7536C27.7537 12.8564 27.0708 13.0041 26.3794 13.1966C26.2963 13.4185 26.2292 13.6382 26.1781 13.8557C26.127 14.0732 26.08 14.2966 26.0371 14.5259L25.9139 15.1839C25.8673 15.4331 25.8381 15.6444 25.8265 15.8175C25.8227 16.1159 25.9265 16.3671 26.138 16.571C26.3614 16.7668 26.5914 16.9277 26.8278 17.0537C26.7898 17.2014 26.7354 17.3254 26.6646 17.4258C26.5956 17.5163 26.5125 17.599 26.4153 17.6739C26.33 17.7407 26.2346 17.8057 26.1292 17.8688C26.0238 17.9319 25.9165 18.005 25.8073 18.088C25.7362 18.0234 25.6623 17.9737 25.5855 17.9389C25.5088 17.9042 25.4252 17.8785 25.3347 17.8619C25.2461 17.8352 25.1575 17.8086 25.0688 17.782C24.9802 17.7554 24.8934 17.7188 24.8085 17.6722L24.5606 17.1626C24.478 16.9927 24.3853 16.8209 24.2826 16.6473L24.3078 16.5127C24.3581 16.2435 24.3564 15.9751 24.3025 15.7073C24.2486 15.4396 24.2207 15.1715 24.2189 14.903C24.2659 14.8189 24.3028 14.7328 24.3297 14.6449C24.3565 14.5571 24.3793 14.4633 24.3979 14.3636C24.4352 14.1642 24.4616 13.9679 24.4769 13.7748C24.5023 13.5835 24.5428 13.395 24.5983 13.2093L24.5229 13.1954C24.4324 13.1788 24.3322 13.1861 24.2223 13.2175C24.1143 13.2389 24.0044 13.2702 23.8927 13.3115C23.7928 13.3447 23.693 13.3779 23.5932 13.4111C23.5053 13.4362 23.4311 13.4432 23.3708 13.4321C23.3406 13.4266 23.3114 13.416 23.2831 13.4005C23.2548 13.385 23.2205 13.3735 23.1803 13.3661C23.13 13.3569 23.066 13.3657 22.9881 13.3926C22.9103 13.4196 22.8265 13.4506 22.7367 13.4856C22.6387 13.5088 22.5407 13.5321 22.4428 13.5553C22.3448 13.5785 22.2506 13.5818 22.1601 13.5652C22.0193 13.5393 21.8897 13.4536 21.7713 13.308C21.7661 13.2246 21.7751 13.1489 21.7982 13.0809C21.8113 13.0111 21.8253 12.9364 21.8402 12.8566C21.8551 12.7769 21.8559 12.6893 21.8425 12.5941C21.9372 12.4774 22.0514 12.3953 22.1851 12.3477C22.3106 12.2883 22.4444 12.2407 22.5863 12.2049C22.72 12.1573 22.8578 12.1156 22.9998 12.0799C23.1435 12.0341 23.2709 11.9648 23.382 11.8717L23.4725 11.8884C23.6133 11.9143 23.7445 11.9075 23.8664 11.868C23.9982 11.8304 24.1386 11.8305 24.2876 11.8682C24.3416 11.8575 24.3908 11.7892 24.4352 11.6633L24.4927 11.6893C24.7139 11.73 24.924 11.6913 25.123 11.5732C25.3492 10.9755 25.5564 10.369 25.7443 9.75384C25.9322 9.1387 26.085 8.51708 26.2025 7.88898C26.2137 7.82916 26.2048 7.76565 26.1758 7.69843C26.1706 7.61497 26.1745 7.53835 26.1876 7.46856L26.2296 7.24424C26.2501 7.13457 26.2766 7.02085 26.309 6.90306C26.3415 6.78527 26.389 6.67026 26.4516 6.55802C26.5634 6.5167 26.6745 6.50621 26.7852 6.52656C26.9159 6.55061 27.0378 6.59367 27.151 6.65575C27.2762 6.70971 27.3972 6.75776 27.5141 6.79989C27.5879 6.90627 27.6346 7.01799 27.6543 7.13506C27.684 7.25397 27.6927 7.37418 27.6804 7.49566C27.6699 7.60718 27.6485 7.72183 27.616 7.83962C27.5955 7.94929 27.575 8.05895 27.5544 8.16862C27.5134 8.38796 27.4984 8.60693 27.5095 8.82554C27.5206 9.04416 27.5075 9.25316 27.4702 9.45256C27.4609 9.50241 27.4333 9.53859 27.3875 9.5611C27.3536 9.57549 27.3264 9.63751 27.3058 9.74718C27.2853 9.85685 27.2739 9.97335 27.2716 10.0967C27.2694 10.22 27.257 10.3415 27.2346 10.4611C27.2085 10.6007 27.1613 10.7416 27.0931 10.8837C27.0249 11.0259 26.9627 11.164 26.9064 11.298C27.5191 11.3591 28.1515 11.3981 28.8037 11.415C29.4558 11.4318 30.089 11.3833 30.7032 11.2694C30.717 11.2513 30.7277 11.2223 30.7351 11.1824C30.7463 11.1226 30.7525 11.0619 30.7536 11.0002C30.7548 10.9385 30.7619 10.8728 30.7749 10.803C30.7973 10.6834 30.8553 10.5961 30.9488 10.5411C30.9507 10.2527 30.9678 9.96706 30.9999 9.6842C31.032 9.40135 31.0742 9.12035 31.1265 8.8412L31.286 7.98878C31.3382 7.70963 31.3855 7.42955 31.4276 7.14855C31.5174 7.1135 31.6076 7.1043 31.6981 7.12094C31.8087 7.14129 31.9036 7.1897 31.9829 7.26617C32.0742 7.33451 32.1851 7.38071 32.3159 7.40476C32.4064 7.42141 32.4846 7.42033 32.5505 7.40152C32.6425 7.52156 32.6936 7.66504 32.704 7.83196C32.7144 7.99888 32.7188 8.16985 32.7172 8.34489C32.7157 8.51992 32.7141 8.69496 32.7126 8.86999C32.7229 9.03691 32.7741 9.18039 32.8661 9.30043L32.8728 9.34807C32.8653 9.38795 32.8396 9.41416 32.7956 9.4267C32.7517 9.43924 32.7241 9.47542 32.7129 9.53524L32.7017 9.59506C32.7121 9.76197 32.7115 9.93202 32.6999 10.1052C32.6882 10.2784 32.6707 10.4556 32.6472 10.6369C32.6355 10.8101 32.629 10.9842 32.6274 11.1593C32.6277 11.3243 32.655 11.4841 32.7094 11.6384C32.7615 11.6377 32.8278 11.6448 32.9083 11.6596C33.1094 11.6966 33.2522 11.795 33.3367 11.9549C33.4331 12.1067 33.5135 12.2608 33.5779 12.417Z" fill="#2D2D2D"/>
<path d="M45 11.579C44.9575 11.6949 44.9077 11.7941 44.8507 11.8764C44.8056 11.9506 44.7801 12.0593 44.7741 12.2026C44.6716 12.1941 44.5847 12.2142 44.5131 12.2629C44.4535 12.3035 44.3971 12.355 44.3438 12.4174C44.3006 12.4816 44.2514 12.5499 44.1962 12.6223C44.153 12.6865 44.1007 12.7439 44.0392 12.7945C44.0525 13.1682 44.0296 13.5404 43.9706 13.9111C43.9117 14.2819 43.8687 14.6504 43.8417 15.0167C43.8062 15.4846 43.7967 15.9521 43.8133 16.4192C43.8418 16.8782 43.8132 17.337 43.7274 17.7956C43.7012 17.9352 43.672 18.0639 43.6395 18.1817C43.6171 18.3013 43.5938 18.4259 43.5695 18.5556C43.5546 18.6353 43.5388 18.7201 43.522 18.8098C43.5171 18.8914 43.5072 18.9721 43.4923 19.0518C43.4382 19.341 43.3438 19.6227 43.2093 19.897C43.0848 20.1732 42.9754 20.4521 42.881 20.7338C42.7398 20.8213 42.6119 20.9215 42.4971 21.0345C42.3924 21.1493 42.2845 21.2532 42.1735 21.3462C42.0625 21.4393 41.9392 21.5145 41.8036 21.5721C41.6661 21.6396 41.5041 21.6717 41.3175 21.6683C41.2687 21.7625 41.1943 21.8261 41.0945 21.8593C41.0047 21.8944 40.9213 21.9512 40.8442 22.0299L40.814 22.0243C40.5626 21.9781 40.3529 21.9034 40.185 21.8003C40.017 21.6972 39.861 21.586 39.7169 21.4667C39.5829 21.3492 39.4447 21.2258 39.3025 21.0965C39.1603 20.9672 38.9892 20.8533 38.7892 20.7546C38.5505 20.4735 38.3408 20.1771 38.1599 19.8653C37.9808 19.5436 37.766 19.2463 37.5154 18.9733C37.4824 18.761 37.4176 18.5789 37.3212 18.4271C37.2348 18.2771 37.1522 18.1073 37.0733 17.9174C37.0361 17.8384 37.008 17.7662 36.989 17.7008C36.9801 17.6373 36.963 17.562 36.9377 17.4748C36.9225 17.3895 36.8825 17.3254 36.8177 17.2826C36.7629 17.2415 36.7142 17.1965 36.6713 17.1473C36.6487 16.8235 36.5863 16.5181 36.4839 16.2311C36.3816 15.9441 36.2523 15.6625 36.0959 15.3863C36.0151 15.4848 35.9424 15.5952 35.8779 15.7174C35.8254 15.8315 35.7719 15.9506 35.7175 16.0746C35.6649 16.1887 35.6014 16.306 35.5268 16.4263C35.4642 16.5385 35.3884 16.638 35.2993 16.7248L35.291 16.7697C35.2816 16.8195 35.2961 16.8531 35.3345 16.8705C35.3728 16.8879 35.3874 16.9215 35.378 16.9713C35.3762 16.9813 35.3693 16.9903 35.3574 16.9984C35.3555 17.0084 35.3536 17.0184 35.3518 17.0284C35.294 17.059 35.2445 17.1014 35.2031 17.1557C35.1718 17.2118 35.115 17.2375 35.0327 17.2326C35.0334 17.2843 35.0291 17.3351 35.0198 17.385L34.9946 17.5196C34.9405 17.8087 34.8512 18.0913 34.7267 18.3675C34.6122 18.6455 34.527 18.9341 34.471 19.2332L34.4347 19.4276C34.4216 19.4974 34.4145 19.5631 34.4134 19.6248C34.4223 19.6883 34.4412 19.7537 34.4703 19.8209C34.4993 19.8881 34.5092 19.9466 34.4998 19.9965C34.4868 20.0663 34.4445 20.1255 34.3729 20.1742C34.434 20.237 34.5042 20.3067 34.5835 20.3831C34.6628 20.4596 34.7311 20.5392 34.7885 20.6219C34.854 20.7165 34.9044 20.8083 34.9398 20.8973C34.9732 20.9963 34.9807 21.0956 34.962 21.1953C34.9303 21.3648 34.8526 21.4742 34.7289 21.5237C34.6052 21.5731 34.4592 21.603 34.2909 21.6133C34.1326 21.6254 33.9651 21.6307 33.7886 21.6292C33.6203 21.6394 33.4724 21.6793 33.345 21.7486L33.2997 21.7403C33.179 21.7181 33.0951 21.6666 33.0478 21.5857C33.0005 21.5048 32.9166 21.4533 32.7959 21.4311C32.6627 21.0869 32.5972 20.7139 32.5996 20.3121C32.6001 19.9203 32.633 19.5499 32.6983 19.201C32.7786 18.7723 32.899 18.351 33.0597 17.9371C33.2103 17.5213 33.3801 17.1143 33.5691 16.7159C33.748 16.3157 33.9361 15.9223 34.1332 15.5357C34.3423 15.141 34.5413 14.7445 34.7303 14.3461L34.7538 14.304C34.7631 14.2542 34.7546 14.2165 34.7281 14.191C34.7118 14.1674 34.7073 14.1356 34.7148 14.0957C34.7185 14.0758 34.7254 14.0667 34.7354 14.0686C34.7843 13.9744 34.8322 13.8853 34.8791 13.8011C34.9361 13.7188 34.985 13.6246 35.0256 13.5187C35.1382 13.2506 35.2316 12.9739 35.3058 12.6884C35.3919 12.3949 35.4621 12.1036 35.5162 11.8144C35.5803 11.5272 35.6445 11.2399 35.7087 10.9526C35.7847 10.6572 35.875 10.3696 35.9794 10.0897C36.0747 10.0248 36.166 9.9539 36.2532 9.87712C36.3404 9.80034 36.4458 9.73723 36.5695 9.68779C36.7687 9.73476 36.9642 9.80166 37.156 9.88851C37.3478 9.97535 37.524 10.0903 37.6844 10.2332C37.7249 10.6841 37.7251 11.1276 37.6851 11.5637C37.6551 12.0017 37.6554 12.4452 37.6857 12.8942L37.6773 12.9391C37.668 12.9889 37.6885 13.0185 37.7388 13.0277C37.801 13.0289 37.8434 13.0521 37.8661 13.0976C37.8404 13.1238 37.8188 13.1559 37.8013 13.1939C37.7938 13.2338 37.7864 13.2737 37.7789 13.3136L37.7313 13.5678C37.7365 13.6512 37.7458 13.7406 37.7592 13.8359C37.7725 13.9312 37.8276 13.998 37.9245 14.0365C37.915 14.3647 37.9354 14.6727 37.9856 14.9604C38.0358 15.2481 38.1029 15.5286 38.187 15.8019C38.2711 16.0752 38.3652 16.3503 38.4694 16.6273C38.5754 16.8943 38.6837 17.1772 38.7942 17.476C39.0102 17.7117 39.1853 17.9708 39.3197 18.2533C39.4559 18.5259 39.5931 18.7935 39.7312 19.0561C39.8812 19.3106 40.056 19.5438 40.2555 19.7558C40.4652 19.9697 40.7573 20.1318 41.1319 20.2419C41.1897 20.2113 41.2351 20.1629 41.2683 20.0968L41.3829 19.9014C41.4261 19.8371 41.4675 19.7829 41.507 19.7386C41.5584 19.6861 41.6221 19.6514 41.6981 19.6345C41.7705 19.359 41.8438 19.0786 41.918 18.7932C42.0022 18.5096 42.1189 18.2474 42.268 18.0067C42.2345 17.9078 42.2299 17.7935 42.2541 17.6639C42.2728 17.5642 42.2956 17.4704 42.3224 17.3825C42.3593 17.2965 42.3862 17.2086 42.4029 17.1189C42.4384 16.9294 42.4271 16.7675 42.369 16.6331C42.3821 16.5633 42.4002 16.4944 42.4233 16.4265C42.4483 16.3486 42.4924 16.2793 42.5558 16.2188C42.5127 16.0046 42.4865 15.7832 42.4772 15.5546C42.4781 15.3279 42.4999 15.0999 42.5428 14.8706C42.5671 14.741 42.6074 14.6092 42.6637 14.4751C42.6313 14.3145 42.6237 14.1326 42.6409 13.9295L42.6954 13.3053C42.7144 13.0922 42.7206 12.8923 42.714 12.7054C42.7074 12.5185 42.659 12.3601 42.5689 12.2301C42.646 12.1515 42.6958 12.0523 42.7182 11.9327C42.7555 11.7333 42.7608 11.5383 42.734 11.3478C42.7073 11.1572 42.7126 10.9622 42.7499 10.7628C42.776 10.6233 42.8323 10.4892 42.9188 10.3608C43.1381 10.4114 43.3496 10.4761 43.5534 10.5549C43.769 10.6255 43.9824 10.6802 44.1936 10.719C44.239 10.8099 44.2972 10.8876 44.3683 10.9523C44.4395 11.0169 44.5156 11.0825 44.5968 11.149C44.6798 11.2055 44.7569 11.2661 44.828 11.3308C44.9092 11.3973 44.9665 11.48 45 11.579Z" fill="#2D2D2D"/>
<path d="M60.0958 5.68536C60.1555 6.26023 60.1343 6.79766 60.0321 7.29763C59.9298 7.7976 59.7797 8.28216 59.5817 8.75131C59.3938 9.2194 59.1851 9.68457 58.9556 10.1468C58.726 10.609 58.5143 11.0949 58.3205 11.6044C58.2595 11.6107 58.2153 11.6306 58.1879 11.6641C58.1707 11.6964 58.1546 11.7389 58.1395 11.7914C58.1335 11.8328 58.1173 11.8753 58.091 11.9188C58.0738 11.9512 58.0347 11.9705 57.9737 11.9769C57.9052 12.2083 57.8102 12.4322 57.6888 12.6488C57.5663 12.8552 57.4336 13.0627 57.2908 13.2712C57.1571 13.4686 57.0239 13.6711 56.8912 13.8786C56.7687 14.085 56.6631 14.305 56.5742 14.5385L56.4216 14.5544C55.9541 15.3982 55.407 16.1687 54.7803 16.8659C54.1637 17.5621 53.4743 18.1996 52.7118 18.7784C52.6978 18.841 52.6725 18.8946 52.636 18.9392C52.5995 18.9837 52.5951 19.0403 52.6228 19.1087C52.5172 19.1809 52.4284 19.2666 52.3565 19.3658C52.2958 19.4741 52.235 19.5823 52.1743 19.6906C52.1136 19.7989 52.0473 19.9026 51.9753 20.0018C51.9146 20.1101 51.8258 20.1958 51.709 20.2589C51.5533 20.2445 51.4031 20.2346 51.2586 20.2293C51.1243 20.2228 50.9854 20.222 50.8419 20.2267C50.7809 20.2331 50.7198 20.2394 50.6588 20.2458C50.5988 20.2622 50.5429 20.268 50.491 20.2632C50.377 20.2547 50.2756 20.2193 50.1869 20.1572C50.1094 20.1041 49.9994 20.0849 49.857 20.0997C49.7858 20.1072 49.7304 20.118 49.6907 20.1323C49.5947 19.9996 49.4828 19.8634 49.3552 19.7238C49.2388 19.5931 49.1717 19.4421 49.1539 19.2706C49.1402 19.1395 49.1429 19.0169 49.1619 18.9028C49.191 18.7876 49.1993 18.6695 49.1867 18.5485C49.1616 18.3064 49.0912 18.0742 48.9755 17.8518C48.87 17.6282 48.8046 17.3955 48.7795 17.1534C48.7711 17.0727 48.7734 16.996 48.7864 16.9233C48.7984 16.8405 48.8001 16.7588 48.7918 16.6781C48.7823 16.5873 48.7332 16.5109 48.6445 16.4487C48.6494 16.3972 48.6645 16.3447 48.6898 16.2911C48.7151 16.2375 48.7246 16.1804 48.7183 16.1199C48.7303 16.0371 48.7264 15.9509 48.7068 15.8612C48.6862 15.7614 48.6716 15.6711 48.6632 15.5904C48.6412 15.3786 48.6294 15.1658 48.6277 14.9519C48.626 14.738 48.6503 14.5264 48.7005 14.3173C48.6841 14.2579 48.663 14.204 48.6375 14.1557L48.5607 14.0107C48.6099 13.7915 48.631 13.5498 48.6241 13.2854C48.6172 13.0211 48.6001 12.7578 48.5728 12.4956L48.4894 11.6938C48.4622 11.4316 48.4517 11.1829 48.4581 10.9477C48.468 10.8448 48.4784 10.7468 48.4893 10.654C48.5093 10.5499 48.5146 10.4525 48.5052 10.3618C48.4968 10.2811 48.4742 10.2121 48.4374 10.1547C48.3995 10.0873 48.352 10.026 48.2949 9.97074C48.364 9.94317 48.4005 9.8986 48.4043 9.83702C48.4072 9.76537 48.406 9.70433 48.4007 9.6539C48.386 9.5127 48.3444 9.35902 48.2757 9.19285C48.2985 9.01717 48.3061 8.84307 48.2985 8.67056C48.2898 8.48796 48.2765 8.31093 48.2587 8.13948C48.1958 7.53435 48.0932 6.94353 47.951 6.36703C47.819 5.78947 47.7119 5.20423 47.6296 4.61129L47.5839 4.61605C47.5127 4.62346 47.4583 4.6444 47.4207 4.67889C47.3832 4.71338 47.3462 4.75291 47.3097 4.79748C47.2721 4.83197 47.2295 4.86699 47.1818 4.90253C47.133 4.92799 47.0725 4.93938 47.0003 4.9367C46.8929 5.09059 46.763 5.22642 46.6108 5.3442C46.4687 5.46092 46.3153 5.56861 46.1508 5.66728C45.9862 5.76594 45.8161 5.8601 45.6403 5.94973C45.4635 6.02929 45.2969 6.10778 45.1404 6.18522C44.9927 6.1496 44.8623 6.0816 44.749 5.98124C44.6347 5.87079 44.5255 5.75981 44.4213 5.64831C44.407 5.60902 44.3977 5.56921 44.3935 5.52887L44.3809 5.40784C44.3516 5.12544 44.3957 4.90677 44.5132 4.75182C44.6297 4.58679 44.7538 4.39549 44.8854 4.17791L44.9617 4.16998C45.0126 4.16469 45.0594 4.17001 45.1022 4.18595C45.1348 4.20295 45.1765 4.20881 45.2274 4.20352L45.2732 4.19876C45.543 3.92603 45.8334 3.70215 46.1442 3.5271C46.4642 3.34092 46.798 3.18897 47.1456 3.07127C47.2825 2.90412 47.423 2.77227 47.5672 2.67572C47.7216 2.57811 47.9056 2.5182 48.1192 2.49599C48.1701 2.4907 48.2265 2.48993 48.2886 2.49366C48.3598 2.48626 48.4214 2.48496 48.4733 2.48976C48.8704 2.25476 49.2453 2.05267 49.5979 1.88348C49.9596 1.70315 50.3846 1.5876 50.8729 1.53683C50.9339 1.53048 50.973 1.51113 50.9902 1.47875C51.0176 1.44532 51.0399 1.41242 51.0571 1.38005C51.0732 1.33759 51.0899 1.30018 51.1071 1.26781C51.1243 1.23544 51.1583 1.2166 51.2092 1.21131C51.2113 1.23149 51.2195 1.26122 51.2339 1.3005C51.2483 1.33978 51.2758 1.35731 51.3165 1.35308C51.3572 1.34885 51.3917 1.33506 51.4201 1.31172C51.4577 1.27723 51.5019 1.25734 51.5527 1.25205C51.6036 1.24676 51.6429 1.27836 51.6706 1.34685C51.7751 1.26461 51.8751 1.18795 51.9706 1.11686C52.066 1.04577 52.1732 0.98875 52.2921 0.945801C52.4478 0.960192 52.603 0.969541 52.7577 0.973846C52.9226 0.977094 53.0864 0.970255 53.2492 0.953332C53.3712 0.94064 53.4928 0.922905 53.6138 0.900127C53.7338 0.867264 53.8353 0.805729 53.9185 0.715525C53.9581 0.701209 53.9806 0.719266 53.9858 0.769694C54.0858 0.840859 54.1882 0.886281 54.293 0.905961C54.3969 0.915555 54.5053 0.919577 54.6182 0.918028C54.7301 0.906393 54.8425 0.899801 54.9555 0.898252C55.0684 0.896703 55.1738 0.921426 55.2717 0.97242C55.3551 0.984129 55.4249 1.01255 55.481 1.05769C55.5361 1.09275 55.6059 1.12117 55.6904 1.14297C55.7535 1.15679 55.8365 1.16346 55.9393 1.16297C56.0522 1.16142 56.1357 1.17313 56.1897 1.19809C56.2427 1.21298 56.2718 1.24563 56.277 1.29606C56.2914 1.33534 56.3256 1.36747 56.3796 1.39244C56.4785 1.45352 56.6053 1.48621 56.7599 1.49052C56.9136 1.48474 57.0505 1.51637 57.1708 1.58542C57.2346 1.80307 57.3617 1.93768 57.5521 1.98924C57.7426 2.0408 57.9279 2.09289 58.1082 2.14551C58.1755 2.19967 58.2032 2.26816 58.1913 2.35096C58.3228 2.42903 58.4401 2.51878 58.5432 2.6202C58.6564 2.72057 58.7606 2.83208 58.8556 2.95473C58.9597 3.06623 59.0588 3.17827 59.1527 3.29083C59.2467 3.4034 59.3549 3.50429 59.4772 3.59351C59.4765 3.68534 59.494 3.75488 59.5298 3.80214C59.5757 3.84833 59.5938 3.92292 59.5839 4.02589C59.7175 4.12414 59.8446 4.25874 59.9652 4.42971C59.9136 4.52682 59.8936 4.63085 59.9051 4.74179C59.9156 4.84265 59.9414 4.94192 59.9824 5.0396C60.0234 5.13728 60.0491 5.23655 60.0596 5.33741L60.0958 5.68536ZM58.6421 5.50008C58.6117 5.2076 58.5264 4.93102 58.3862 4.67035C58.2449 4.39959 58.1194 4.13228 58.0097 3.86844C57.8775 3.88219 57.7863 3.84579 57.7362 3.75925C57.6952 3.66157 57.6252 3.58219 57.5263 3.52111C57.3289 3.50086 57.1916 3.36732 57.1145 3.12047C56.9027 3.06094 56.6847 2.99185 56.4606 2.9132C56.2365 2.83456 56.0438 2.71187 55.8825 2.54514C55.5047 2.47228 55.1219 2.39994 54.734 2.32813C54.3552 2.24519 53.9725 2.22381 53.5859 2.264C53.5147 2.2714 53.4491 2.28332 53.3891 2.29975C53.3383 2.30504 53.2874 2.31033 53.2366 2.31562C53.1552 2.32408 53.0703 2.3482 52.9819 2.38797C52.8935 2.42775 52.8086 2.45187 52.7272 2.46033C52.6356 2.46985 52.5409 2.44911 52.4431 2.39812C52.2512 2.53021 52.0363 2.63921 51.7985 2.72511C51.5708 2.80995 51.3375 2.89028 51.0986 2.96609C50.8586 3.03182 50.6254 3.11214 50.3987 3.20707C50.1711 3.29191 49.9725 3.4094 49.803 3.55956C49.7399 3.54573 49.6773 3.53695 49.6152 3.53321C49.5633 3.52841 49.5119 3.52866 49.461 3.53395C49.3695 3.54347 49.3004 3.57104 49.2537 3.61667C49.2253 3.64002 49.2075 3.66734 49.2005 3.69866C49.2037 3.72892 49.2022 3.76474 49.1963 3.80614C49.1994 3.8364 49.1919 3.86267 49.1736 3.88496C49.1554 3.90724 49.1152 3.91652 49.0531 3.91278C49.0584 3.96321 49.058 4.00912 49.052 4.05052C49.0562 4.09086 49.0609 4.13625 49.0662 4.18668C49.0934 4.4489 49.1461 4.70848 49.2243 4.96541C49.3115 5.21121 49.3688 5.46522 49.396 5.72744C49.4055 5.81821 49.4104 5.91455 49.4107 6.01647C49.4099 6.10829 49.399 6.20118 49.3779 6.29512C49.4414 6.41086 49.4805 6.53933 49.4951 6.68052C49.52 6.82066 49.5398 6.96133 49.5544 7.10253C49.5691 7.24373 49.5889 7.3844 49.6137 7.52454C49.6375 7.65459 49.6863 7.77696 49.7599 7.89164C49.7451 8.0461 49.7405 8.1995 49.746 8.35184C49.7516 8.50418 49.7622 8.65599 49.778 8.80727C49.8147 9.16027 49.8661 9.50663 49.9323 9.84637C50.0086 10.185 50.0651 10.5309 50.1018 10.8839C50.1113 10.9746 50.1162 11.071 50.1165 11.1729C50.127 11.2738 50.1324 11.3751 50.1327 11.4771C50.126 11.6103 50.1035 11.7401 50.0652 11.8664C50.0269 11.9927 50.0151 12.1264 50.0298 12.2676C50.0392 12.3584 50.0543 12.4537 50.0749 12.5535C50.0945 12.6432 50.1096 12.7385 50.1201 12.8393C50.1243 12.8797 50.1234 12.9206 50.1174 12.962C50.1206 12.9922 50.1242 13.0275 50.1284 13.0679C50.1143 13.4261 50.1108 13.7884 50.118 14.1547C50.1253 14.5209 50.1472 14.8805 50.1839 15.2335C50.2185 15.5663 50.2633 15.8981 50.3183 16.2288C50.3722 16.5494 50.4368 16.8741 50.5121 17.2026C50.4787 17.2775 50.4668 17.3603 50.4762 17.451C50.4909 17.5922 50.5412 17.7297 50.6271 17.8635C50.714 18.0074 50.8313 18.0972 50.9789 18.1328C51.2919 17.9779 51.5752 17.7853 51.8289 17.5551C52.0938 17.3338 52.3582 17.1075 52.622 16.8762C52.688 16.8184 52.788 16.7417 52.922 16.6462C53.055 16.5406 53.1448 16.465 53.1915 16.4194C53.2382 16.3738 53.2747 16.3292 53.301 16.2857C53.3364 16.231 53.377 16.1759 53.4226 16.1201L54.02 15.3393C54.3657 14.9058 54.7057 14.4677 55.0402 14.0252C55.3848 13.5816 55.6963 13.1159 55.9746 12.6282C56.0515 12.4775 56.1289 12.3318 56.2068 12.1912C56.2836 12.0405 56.3549 11.8852 56.4206 11.7255C56.456 11.6708 56.4808 11.6122 56.4948 11.5496C56.5078 11.4768 56.5371 11.4126 56.5827 11.3569C56.6091 11.3134 56.6405 11.2693 56.677 11.2248C56.7236 11.1791 56.7601 11.1346 56.7865 11.0911C56.8584 10.9918 56.9253 10.8931 56.987 10.7949C57.0579 10.6856 57.1283 10.5713 57.1981 10.4519C57.3884 10.1059 57.5634 9.76144 57.7231 9.41861C57.8818 9.06569 58.0613 8.7157 58.2617 8.36863C58.2611 8.16481 58.2824 7.97399 58.3256 7.79619C58.3677 7.60831 58.4109 7.43051 58.4552 7.26279C58.4984 7.08499 58.5309 6.9032 58.5527 6.71743C58.5746 6.53166 58.5637 6.32889 58.5203 6.10913C58.5639 6.03324 58.5993 5.97858 58.6267 5.94515C58.6642 5.91066 58.6783 5.84803 58.6688 5.75726L58.6421 5.50008Z" fill="#2D2D2D"/>
<path d="M70.0639 6.46865C70.0123 6.56576 69.9871 6.67032 69.9885 6.78232C69.9899 6.89432 69.9953 6.99571 70.0047 7.08648C70.0173 7.2075 70.0299 7.32853 70.0425 7.44955C70.0642 7.55944 70.0808 7.66985 70.0923 7.78079L70.1159 8.00771C70.1029 8.08043 70.0797 8.1542 70.0464 8.22903C70.013 8.30386 69.9899 8.37763 69.9769 8.45035C69.8732 8.83832 69.8408 9.21889 69.8796 9.59206L69.8828 9.62231C69.8445 9.74863 69.8052 9.86486 69.7648 9.971C69.7346 10.0761 69.7044 10.1812 69.6742 10.2863C69.6429 10.3813 69.6229 10.4853 69.6141 10.5983C69.6042 10.7013 69.6117 10.8229 69.6366 10.963C69.5309 11.3308 69.3762 11.6731 69.1727 11.9899C68.9681 12.2966 68.7696 12.6129 68.5773 12.9388C68.372 13.0417 68.1847 13.1682 68.0152 13.3183C67.8559 13.4674 67.7033 13.6311 67.5573 13.8094C67.2524 13.9431 66.9542 14.0913 66.6627 14.2541C66.3711 14.417 66.1148 14.622 65.8937 14.8693C65.7026 14.9096 65.5124 14.9599 65.3233 15.0204C65.1343 15.0808 64.9524 15.1609 64.7776 15.2606L64.5945 15.2796C64.503 15.2892 64.4348 15.2759 64.3899 15.2398C64.265 15.3241 64.1329 15.3888 63.9936 15.4339C63.8533 15.4689 63.7119 15.4938 63.5695 15.5086C63.3864 15.5276 63.2023 15.5366 63.0171 15.5354C62.841 15.5231 62.6598 15.5114 62.4736 15.5002C62.3572 15.3696 62.2037 15.2785 62.0133 15.2269C61.8218 15.1653 61.6512 15.1065 61.5014 15.0508C61.1645 14.678 60.9105 14.3119 60.7394 13.9525C60.5673 13.583 60.3854 13.1686 60.1937 12.7094C60.1994 12.5661 60.2208 12.4263 60.2581 12.2899C60.2943 12.1434 60.2989 11.99 60.2719 11.8297C60.4005 11.2862 60.5903 10.7873 60.8412 10.333C61.1013 9.86763 61.4042 9.41816 61.7498 8.98463C61.7435 8.92412 61.7485 8.87263 61.7646 8.83017C61.7909 8.78666 61.7897 8.72562 61.761 8.64705C61.7722 8.65607 61.7931 8.659 61.8236 8.65583C61.905 8.64737 61.9538 8.62191 61.9699 8.57945C61.985 8.52691 61.9843 8.47091 61.9679 8.41145C62.31 8.14141 62.6128 7.83976 62.8763 7.50653C63.15 7.17223 63.4697 6.88413 63.8353 6.64222C63.8564 6.54828 63.8994 6.46735 63.9643 6.39943C64.0292 6.33152 64.0778 6.2551 64.1101 6.17019C64.4262 6.04557 64.707 5.87874 64.9526 5.6697C65.1982 5.46066 65.4612 5.2702 65.7415 5.09833C65.8949 4.99064 66.0412 4.91426 66.1804 4.8692C66.3288 4.81299 66.4874 4.75572 66.6561 4.6974C66.7151 4.67088 66.7694 4.64994 66.8192 4.63456C66.8691 4.61919 66.9245 4.60833 66.9855 4.60198C67.1686 4.58294 67.3503 4.59973 67.5306 4.65235C67.7098 4.69488 67.891 4.70663 68.0741 4.68759C68.125 4.6823 68.1656 4.67807 68.1962 4.6749C68.2358 4.66058 68.2754 4.64627 68.3151 4.63195C68.51 4.82577 68.7455 4.9644 69.0216 5.04784C69.0983 5.19277 69.1832 5.31648 69.2761 5.41896C69.3792 5.52038 69.4822 5.6218 69.5853 5.72323C69.6874 5.81456 69.7808 5.92208 69.8657 6.04579C69.9596 6.15836 70.0257 6.29931 70.0639 6.46865ZM68.6198 7.41398C68.6145 7.36355 68.6047 7.31869 68.5904 7.27941C68.4855 7.25973 68.3847 7.22943 68.2879 7.18853C68.1911 7.14762 68.0867 7.13298 67.9748 7.14462C67.9036 7.15202 67.834 7.17455 67.7659 7.21221C67.7484 7.14267 67.7126 7.09542 67.6586 7.07045C67.6148 7.04442 67.5613 7.0245 67.4982 7.01067C67.4442 6.9857 67.3861 6.97135 67.324 6.96761C67.2711 6.95273 67.2222 6.92723 67.1773 6.89112C67.1384 6.81361 67.0944 6.73663 67.0453 6.66017C67.0053 6.57257 66.9375 6.51337 66.8417 6.48254C66.7596 6.58283 66.6607 6.66958 66.5449 6.74278C66.4281 6.80591 66.3062 6.86955 66.1792 6.93373C66.0623 6.99685 65.9465 7.07006 65.8318 7.15335C65.7273 7.23558 65.6395 7.33136 65.5686 7.44068L65.294 7.46923C65.2445 7.58652 65.1669 7.68124 65.0613 7.75339C64.9547 7.81545 64.8659 7.90114 64.795 8.01046C64.6406 8.10806 64.4985 8.22478 64.3687 8.36062C64.248 8.48531 64.1283 8.62009 64.0097 8.76495C63.8901 8.89973 63.7709 9.03955 63.6523 9.18441C63.5439 9.32821 63.4242 9.46299 63.2933 9.58874C63.1904 9.88488 63.0686 10.1473 62.9279 10.376C62.7963 10.5936 62.6703 10.8157 62.5499 11.0423C62.4397 11.2679 62.3468 11.512 62.2713 11.7747C62.2049 12.0263 62.1906 12.3336 62.2283 12.6967L62.2441 12.848C62.2493 12.8984 62.2596 12.9483 62.2751 12.9977C62.422 13.1251 62.5445 13.2653 62.6427 13.4182C62.751 13.57 62.9106 13.6707 63.1214 13.7201C63.3332 13.7797 63.5505 13.7928 63.7733 13.7594C64.0062 13.725 64.2326 13.7269 64.4525 13.7652C64.9314 13.6237 65.3841 13.4288 65.8107 13.1805C66.2464 12.9212 66.6526 12.6241 67.0291 12.2893C67.0848 12.2325 67.1508 12.1747 67.2269 12.1158C67.302 12.0468 67.3619 11.9794 67.4064 11.9136C67.452 11.8579 67.487 11.7982 67.5112 11.7345C67.5456 11.6698 67.5805 11.6101 67.616 11.5554C67.6837 11.4158 67.7616 11.2752 67.8497 11.1335C67.9378 10.9918 68.0321 10.8597 68.1324 10.7371C68.1602 10.5099 68.2043 10.2913 68.2647 10.0811C68.3241 9.86084 68.3839 9.64562 68.4444 9.43545C68.5048 9.22528 68.5494 9.01165 68.5782 8.79456C68.6172 8.57642 68.6247 8.35137 68.6006 8.1194C68.5953 8.06897 68.5845 8.01403 68.568 7.95457C68.5617 7.89406 68.5509 7.83912 68.5355 7.78975C68.6053 7.67035 68.6334 7.54509 68.6198 7.41398Z" fill="#2D2D2D"/>
<path d="M80.6859 4.49258L80.6922 4.55309C80.6231 4.58066 80.5927 4.63479 80.6011 4.71548C80.4944 4.77754 80.3817 4.83005 80.2627 4.873C80.1428 4.90586 80.0294 4.95332 79.9228 5.01538C79.8098 5.01693 79.6923 5.02405 79.5703 5.03675C79.4573 5.0383 79.3449 5.04489 79.233 5.05652C78.9278 5.08825 78.6237 5.13007 78.3206 5.18197C78.0175 5.23387 77.7124 5.2656 77.4051 5.27716C77.2711 5.37266 77.1202 5.45461 76.9525 5.52302C76.7939 5.58028 76.6384 5.61685 76.4858 5.63271C76.3637 5.6454 76.2553 5.64138 76.1606 5.62064C75.9291 5.76706 75.67 5.89594 75.3834 6.0073C75.1069 6.1176 74.8254 6.22843 74.5388 6.33978C74.2511 6.44106 73.9752 6.5564 73.711 6.68581C73.456 6.80408 73.2356 6.95952 73.05 7.15213C73.0444 7.29545 73.0438 7.43823 73.0483 7.58048C73.0518 7.71265 73.0603 7.8443 73.0739 7.97541C73.0886 8.11661 73.1073 8.24719 73.1301 8.36716C73.163 8.48607 73.2112 8.60339 73.2747 8.71913C73.3276 8.73401 73.3851 8.74333 73.4472 8.74706C73.5195 8.74975 73.581 8.74844 73.6319 8.74315C73.6828 8.73787 73.7331 8.72753 73.7829 8.71216C73.8317 8.6867 73.8636 8.6477 73.8787 8.59515C74.0292 8.55912 74.1813 8.53821 74.3349 8.53243C74.4875 8.51657 74.6401 8.5007 74.7927 8.48483C74.9453 8.46897 75.0922 8.44859 75.2336 8.4237C75.3851 8.39775 75.53 8.35719 75.6682 8.30204C75.8268 8.24478 75.9818 8.20317 76.1334 8.17722C76.2951 8.15021 76.4517 8.12373 76.6033 8.09778C76.7548 8.07183 76.9109 8.04031 77.0716 8.00321C77.2312 7.95603 77.3933 7.88311 77.5578 7.78444C77.6953 7.82112 77.8302 7.83259 77.9624 7.81884C78.1048 7.80403 78.2432 7.79983 78.3775 7.80626C78.454 7.84928 78.5157 7.89893 78.5627 7.95522C78.6198 8.01044 78.6526 8.07839 78.661 8.15908C78.6757 8.30028 78.6395 8.44676 78.5525 8.59854C78.4654 8.75031 78.3977 8.88988 78.3492 9.01726L78.1814 9.03471C77.9372 9.06009 77.7019 9.12025 77.4752 9.21518C77.2577 9.29896 77.0367 9.3984 76.8122 9.5135C76.5968 9.61745 76.3757 9.71689 76.1491 9.81182C75.9316 9.8956 75.7008 9.95018 75.4566 9.97557C75.416 9.9798 75.3932 10.0077 75.3882 10.0591C75.3924 10.0995 75.3854 10.1308 75.3671 10.1531C75.3152 10.1483 75.2384 10.1512 75.1367 10.1618C74.9027 10.1861 74.6815 10.2346 74.4732 10.3072C74.2648 10.3798 74.0487 10.4278 73.8249 10.4511C73.7639 10.4574 73.7028 10.4638 73.6418 10.4701C73.5797 10.4664 73.5176 10.4626 73.4555 10.4589C73.4131 10.5449 73.3527 10.6072 73.2745 10.6459C73.1952 10.6746 73.1231 10.7228 73.0582 10.7908C73.0371 10.8847 73.0283 10.9977 73.0317 11.1299C73.0454 11.261 73.0545 11.3977 73.059 11.54C73.0726 11.6711 73.0755 11.7982 73.0678 11.9214C73.06 12.0445 73.0293 12.1445 72.9756 12.2215C72.991 12.2709 73.0338 12.2868 73.104 12.2693C73.1731 12.2417 73.2118 12.2683 73.2202 12.349C73.2296 12.4397 73.2294 12.5366 73.2196 12.6396C73.2097 12.7425 73.21 12.8445 73.2205 12.9453C73.2404 13.1369 73.2828 13.3466 73.3476 13.5744C73.4215 13.791 73.5142 13.9903 73.6257 14.1724C73.7474 14.3535 73.8964 14.5011 74.0728 14.6153C74.2481 14.7194 74.4579 14.7587 74.702 14.7333C74.8648 14.7164 75.0142 14.6703 75.1503 14.595C75.2865 14.5197 75.393 14.4066 75.4698 14.2559L75.5446 14.2329C75.5852 14.2286 75.6214 14.23 75.6529 14.2369C75.6947 14.2427 75.7359 14.2435 75.7766 14.2393C75.8376 14.233 75.9102 14.1897 75.9945 14.1096C76.0878 14.0184 76.1852 13.9165 76.2866 13.804C76.3982 13.6904 76.5103 13.5819 76.6229 13.4785C76.7345 13.3649 76.8441 13.2822 76.9518 13.2302C77.0084 13.0816 77.0598 12.9335 77.1062 12.786C77.1627 12.6374 77.2529 12.5159 77.3767 12.4214L77.3311 11.9827C77.4213 11.8612 77.5176 11.7492 77.6201 11.6468C77.7327 11.5434 77.8122 11.4178 77.8586 11.2703C77.9115 11.2852 77.9589 11.2956 78.0006 11.3014C78.0525 11.3062 78.1039 11.306 78.1548 11.3007C78.2056 11.2954 78.256 11.2851 78.3058 11.2697C78.3658 11.2532 78.4202 11.2323 78.4689 11.2068C78.5618 11.3093 78.636 11.429 78.6914 11.566C78.7559 11.6918 78.83 11.8116 78.9138 11.9252C78.8411 12.1162 78.7568 12.3442 78.661 12.609C78.5651 12.8738 78.4591 13.1397 78.3429 13.4067C78.2267 13.6736 78.0993 13.9315 77.9606 14.1804C77.8311 14.4182 77.6964 14.6055 77.5564 14.7424C77.529 14.7758 77.4665 14.818 77.369 14.8689C77.2655 14.9612 77.1716 15.0475 77.0874 15.1276C77.0043 15.2178 76.9272 15.3175 76.8563 15.4269C76.5708 15.5483 76.2985 15.6989 76.0396 15.8788C75.7908 16.0576 75.5416 16.2313 75.2918 16.4C75.1665 16.3824 75.0327 16.3811 74.8903 16.3959C74.7682 16.4086 74.6467 16.4263 74.5257 16.4491C74.4057 16.4819 74.2745 16.5058 74.1321 16.5206C74.0861 16.4744 74.0214 16.4454 73.938 16.4337C73.8657 16.431 73.835 16.3833 73.8459 16.2904C73.498 16.3062 73.2083 16.2394 72.9768 16.0902C72.7464 15.951 72.5423 15.7684 72.3646 15.5422C72.197 15.3149 72.0527 15.0649 71.9318 14.792C71.8109 14.5191 71.686 14.2569 71.557 14.0052L71.5523 13.9598C71.547 13.9094 71.5642 13.877 71.6039 13.8627C71.6435 13.8484 71.6607 13.816 71.6554 13.7656C71.6534 13.7454 71.6467 13.7308 71.6355 13.7218C71.5934 13.614 71.558 13.5209 71.5293 13.4423C71.5006 13.3637 71.4804 13.269 71.4689 13.158C71.4521 12.9967 71.446 12.8393 71.4506 12.6859C71.4542 12.5224 71.4476 12.36 71.4308 12.1986C71.414 12.0372 71.379 11.8981 71.3257 11.7814C71.3612 11.7267 71.39 11.6574 71.4121 11.5736C71.423 11.4807 71.4288 11.3883 71.4296 11.2965C71.4303 11.2047 71.426 11.1134 71.4165 11.0226C71.4173 10.9308 71.4241 10.8485 71.4371 10.7758C71.3849 10.6691 71.3393 10.577 71.3004 10.4995C71.2605 10.4119 71.2342 10.3076 71.2216 10.1865L71.2106 10.0806C71.2945 9.8986 71.3626 9.71311 71.415 9.52417C71.4673 9.33523 71.5242 9.14071 71.5856 8.94062L71.5809 8.89524C71.5505 8.60276 71.5099 8.31133 71.4592 8.02097C71.4084 7.7306 71.3678 7.43918 71.3374 7.1467L71.3075 6.85926C71.2971 6.75841 71.2922 6.66206 71.2929 6.57024C71.3701 6.52143 71.4254 6.45962 71.4587 6.38479C71.4921 6.30996 71.5473 6.24814 71.6245 6.19934L72.1281 6.14698L72.2039 5.98618C72.2291 5.93258 72.2437 5.87499 72.2476 5.81342C72.3564 5.77153 72.459 5.72008 72.5555 5.65907C72.6611 5.58693 72.7565 5.51584 72.8418 5.4458C72.9758 5.35031 73.0956 5.26649 73.2012 5.19434C73.3159 5.11105 73.4272 5.04342 73.5349 4.99144C73.6517 4.92832 73.7746 4.87476 73.9037 4.83075C74.0328 4.78674 74.1828 4.74567 74.3536 4.70751C74.435 4.69905 74.4843 4.67864 74.5015 4.64626C74.5289 4.61283 74.5659 4.5733 74.6126 4.52767C74.7367 4.53515 74.8609 4.54263 74.9851 4.55011C75.1082 4.5475 75.2308 4.53985 75.3529 4.52716C75.597 4.50177 75.8212 4.43259 76.0254 4.31961C76.3305 4.28788 76.6301 4.25163 76.924 4.21087C77.2282 4.16906 77.5328 4.13228 77.838 4.10055C78.1025 4.07305 78.368 4.05564 78.6346 4.04831C78.9012 4.04098 79.1643 4.04931 79.4238 4.07329C79.5122 4.03352 79.6124 4.00781 79.7243 3.99618C79.8463 3.98348 79.97 3.98592 80.0952 4.00348C80.2295 4.00991 80.3567 3.99668 80.4767 3.96382C80.4984 4.0737 80.5338 4.16687 80.5829 4.24333C80.6411 4.30864 80.6754 4.39172 80.6859 4.49258Z" fill="#2D2D2D"/>
</svg>
