<svg width="263" height="231" viewBox="0 0 263 231" fill="none" xmlns="http://www.w3.org/2000/svg">
<path d="M91.5324 5.02678C90.5569 5.6972 89.5815 6.36761 88.606 7.03802C87.6415 7.64964 86.8151 8.49977 86.1268 9.58842C85.3998 9.5751 84.6379 9.58572 83.8412 9.62029C83.0444 9.65486 82.2935 9.60668 81.5882 9.47577C81.1181 9.3885 80.6588 9.24243 80.2104 9.03756C79.773 8.7739 79.3192 8.59843 78.849 8.51115C78.4376 8.43479 78.1938 8.60239 78.1174 9.01396C78.0411 9.42554 77.8636 9.7271 77.5849 9.91864C77.1474 9.65498 76.6697 9.44466 76.1517 9.28768C75.6337 9.1307 75.1102 9.00312 74.5812 8.90493C73.3471 8.67584 72.0747 8.65253 70.7642 8.835C69.5234 8.96959 68.2662 9.19238 66.9926 9.50335C65.73 9.75554 64.4619 10.0371 63.1884 10.3481C61.9148 10.6591 60.6337 10.847 59.345 10.9119C59.3928 10.9816 59.395 11.134 59.3514 11.3692C59.275 11.7808 59.0921 12.1117 58.8025 12.3621C58.5238 12.5536 58.3462 12.8552 58.2699 13.2668L58.2208 13.5314C58.6426 15.191 59.0752 16.7918 59.5187 18.3338C59.9623 19.8758 60.3655 21.4712 60.7285 23.1199C60.9393 23.9497 61.0969 24.7392 61.2011 25.4883C61.3053 26.2375 61.428 27.051 61.5692 27.9287C61.5995 28.4209 61.7452 28.7824 62.0064 29.0134C62.2784 29.1855 62.5341 29.4458 62.7734 29.7943C62.5905 30.1253 62.4717 30.4378 62.4172 30.7318C62.21 31.8489 62.2727 32.9857 62.6054 34.1422C62.9489 35.2399 63.0226 36.3179 62.8263 37.3763C62.7718 37.6703 62.6421 38.0415 62.4374 38.4901C62.9572 39.6205 63.2441 40.8598 63.2981 42.2078C63.352 43.5559 63.3711 44.9279 63.3554 46.3238C63.3506 47.661 63.3458 48.9981 63.341 50.3353C63.4058 51.6245 63.6982 52.8344 64.218 53.9648C63.6758 54.594 63.2696 55.3093 62.9994 56.1106C62.7401 56.8531 62.5341 57.636 62.3814 58.4591C62.0325 60.3406 61.8544 62.2842 61.8472 64.2899C61.9096 66.2477 61.7664 68.1674 61.4174 70.0489C61.1775 71.3424 60.8343 72.3734 60.3878 73.142C60.3418 74.0458 60.5157 74.7471 60.9095 75.2459C60.5981 75.6139 60.4172 76.0973 60.367 76.6962C60.3276 77.2362 60.1228 77.6848 59.7526 78.0418C59.8284 79.2723 59.7736 80.3873 59.5882 81.3868C59.3156 82.8567 58.8373 84.2884 58.1533 85.682C57.5389 87.0276 57.09 88.4648 56.8065 89.9935C56.7302 90.405 56.6887 90.7927 56.682 91.1564C56.6644 91.5788 56.7002 92.0416 56.7893 92.5447C56.6063 92.8757 56.3331 93.0378 55.9695 93.0312C55.6539 93.0942 55.41 93.2618 55.238 93.534L55.1889 93.7986C55.0253 94.6805 54.766 95.423 54.411 96.0261C54.1038 96.699 53.7488 97.3021 53.3459 97.8355L52.209 99.5403C51.854 100.143 51.5174 100.811 51.1993 101.542C49.5187 102.082 47.9022 102.603 46.3499 103.105C44.8565 103.619 43.3433 104.402 41.8105 105.456C41.5645 105.471 41.2064 105.435 40.7362 105.348C40.3248 105.271 39.9189 105.166 39.5184 105.03C39.107 104.954 38.6662 104.872 38.1961 104.785C37.5496 104.665 36.8574 104.628 36.1194 104.673C35.3427 103.617 34.3166 102.757 33.0412 102.095C31.7549 101.491 30.5841 100.757 29.5286 99.8917C29.2153 99.2862 28.8324 98.7286 28.3798 98.2188L27.022 96.6895C26.5694 96.1798 26.1462 95.6755 25.7524 95.1766C25.3585 94.6778 25.0453 94.0723 24.8126 93.36L23.5784 93.131C23.5893 93.0722 23.6002 93.0134 23.6112 92.9546C23.6808 92.9067 23.7211 92.8533 23.732 92.7945C23.7865 92.5006 23.6723 92.2969 23.3894 92.1836C23.1064 92.0702 23.0564 91.8481 23.2394 91.5171C22.6323 90.857 22.1591 90.1306 21.8198 89.3378C21.4805 88.5449 21.1466 87.7227 20.8182 86.8711C20.4789 86.0782 20.1396 85.2854 19.8003 84.4926C19.4501 83.7586 18.9714 83.0615 18.3643 82.4014L18.3971 82.225C18.4516 81.9311 18.3961 81.7383 18.2307 81.6468C18.0762 81.4965 18.1014 81.197 18.3061 80.7485C17.5948 79.3392 17.0413 77.8984 16.6456 76.4261C16.25 74.9538 15.8891 73.4576 15.5631 71.9374C15.3068 70.3693 15.0157 68.8251 14.6897 67.3049C14.4225 65.7957 14.0268 64.3233 13.5027 62.888C13.4942 62.2782 13.5445 61.6794 13.6535 61.0914L13.9806 59.3275C14.2969 57.6224 14.7437 56.0328 15.321 54.5587C15.9093 53.0257 16.7512 51.6007 17.8465 50.2835C18.3385 50.2532 18.8729 50.322 19.4497 50.4899C20.0962 50.6099 20.6839 50.719 21.2128 50.8171C21.7417 50.9153 22.2467 50.9786 22.7278 51.0071C23.2786 50.9877 23.7978 50.8104 24.2855 50.4752C24.1831 50.6995 24.2092 50.8868 24.3637 51.0371C24.5291 51.1286 24.6999 51.1908 24.8763 51.2235C25.1701 51.278 25.44 51.2977 25.686 51.2826C26.0017 51.2195 26.3064 51.2153 26.6003 51.2698C26.7178 51.2916 26.8593 51.3483 27.0247 51.4398C27.2489 51.5423 27.3337 51.7405 27.2792 52.0344C27.6536 51.9823 28.0041 51.8953 28.3307 51.7735C28.6572 51.6516 29.0132 51.5352 29.3985 51.4243C30.2341 52.4917 31.2841 53.3861 32.5485 54.1073C33.8239 54.7698 35.1287 55.4378 36.4629 56.1112C37.8079 56.7258 39.1127 57.3937 40.3772 58.115C41.6525 58.7775 42.7428 59.6185 43.648 60.638C43.8329 61.2805 43.8653 61.9251 43.7453 62.5719C43.56 63.5714 42.985 64.377 42.0204 64.9886C41.0668 65.5414 40.0926 65.8776 39.0977 65.997C37.9205 64.8053 36.5178 63.8455 34.8898 63.1176C33.3206 62.4006 31.8722 61.5235 30.5447 60.4864C29.2821 60.7386 27.9401 60.7632 26.5187 60.5602C25.167 60.3092 23.8337 60.1226 22.519 60.0002C22.1815 60.1808 21.9876 60.5706 21.9374 61.1694C21.9459 61.7792 21.7759 62.2038 21.4275 62.4432C21.7663 64.8781 22.351 67.2978 23.1817 69.7024C24.0233 72.0481 24.7365 74.4308 25.3212 76.8505C25.3733 77.2251 25.5299 77.5279 25.7911 77.7588C26.0631 77.931 26.3297 78.1325 26.5909 78.3635L26.5418 78.628C26.4764 78.9808 26.5154 79.2618 26.659 79.4709C26.8135 79.6212 26.7884 79.9206 26.5836 80.3692C27.2671 80.6177 27.6957 81.0926 27.8696 81.7939C28.1023 82.5061 28.3513 83.1301 28.6167 83.6659C28.7973 84.0036 28.9833 84.3118 29.1747 84.5906C29.425 84.8803 29.6404 85.194 29.8209 85.5316C30.6128 86.8342 31.482 88.2119 32.4284 89.6648C33.3748 91.1177 34.4345 92.2876 35.6075 93.1743C35.762 93.3247 35.898 93.4107 36.0156 93.4326C36.1919 93.4653 36.3628 93.5274 36.5282 93.6189C37.1092 94.0917 37.7545 94.546 38.464 94.9818C39.1626 95.4764 39.9232 95.8001 40.746 95.9528C41.1574 96.0292 41.5852 96.0173 42.0293 95.9173C42.5322 95.8282 42.8805 95.5888 43.0744 95.199C43.4664 94.7244 43.7866 94.1452 44.035 93.4615C44.3312 92.8475 44.5927 92.2574 44.8193 91.6912C45.6056 90.0734 46.3627 88.4501 47.0903 86.8214C47.8767 85.2036 48.5749 83.5694 49.185 81.9189C49.2092 81.1327 49.2628 80.352 49.3458 79.5768C49.4288 78.8015 49.5412 78.0317 49.6829 77.2674C49.9337 75.9151 50.2139 74.5682 50.5235 73.2268C50.8918 71.8963 51.2014 70.5549 51.4522 69.2026C51.6812 67.9679 51.8166 66.7462 51.8584 65.5376C51.9698 64.281 51.8995 63.0212 51.6475 61.758C51.8086 61.5446 51.9883 61.3955 52.1864 61.3106C52.3845 61.2258 52.5108 61.0363 52.5653 60.7424C52.6308 60.3896 52.6005 59.8974 52.4744 59.2658C52.4181 58.5863 52.2593 58.1311 51.9982 57.9002C52.5186 57.3886 52.8606 56.6918 53.0242 55.8099C53.2096 54.8103 53.248 53.7835 53.1396 52.7295C53.0311 51.6754 53.0695 50.6486 53.2549 49.649C53.3749 49.0023 53.583 48.3719 53.8792 47.7579C53.9556 47.3463 53.788 47.1023 53.3766 47.026C52.9652 46.9496 52.7683 46.7002 52.7859 46.2777C52.8077 46.1601 52.8295 46.0425 52.8513 45.9249C52.9319 45.8182 52.9831 45.7061 53.0049 45.5885C53.1467 44.8241 53.16 44.0968 53.0448 43.4064C52.9994 42.6681 53.0182 41.9113 53.1011 41.1361C52.6813 40.4499 52.4356 39.6441 52.364 38.7185C52.2925 37.7929 52.221 36.8673 52.1495 35.9418C52.0889 34.9574 51.988 34.0264 51.8468 33.1487C51.7056 32.271 51.3609 31.5075 50.8125 30.8584C50.9543 30.094 50.984 29.2785 50.9015 28.4117C50.8779 27.5558 50.4874 26.8751 49.73 26.3696C49.6282 24.9519 49.3925 23.6005 49.0229 22.3155C48.6533 21.0304 48.0562 19.8248 47.2315 18.6986C47.4932 17.2875 47.4011 16.1453 46.9552 15.2718C46.568 14.4093 46.0557 13.4019 45.4183 12.2496C44.0448 12.1163 42.644 12.13 41.216 12.2906C39.7879 12.4513 38.398 12.4062 37.0463 12.1552C36.6937 12.0898 36.3411 12.0243 35.9884 11.9589C35.7055 11.8455 35.3932 11.7267 35.0514 11.6025C34.7249 11.7243 34.494 11.9856 34.3589 12.3862C34.2347 12.7281 34.1454 13.046 34.0909 13.34C33.0112 13.2612 31.9445 13.2761 30.8909 13.3846C29.8482 13.4344 28.7707 13.508 27.6583 13.6056C26.6156 13.6554 25.5783 13.6757 24.5465 13.6666C23.5147 13.6575 22.4753 13.5254 21.4283 13.2703C20.8643 14.017 20.173 14.4665 19.3544 14.6187C18.5468 14.712 17.6913 14.7357 16.7879 14.6896C15.9433 14.6545 15.0933 14.6488 14.2378 14.6724C13.3823 14.6961 12.665 14.9583 12.0857 15.4589C11.8943 15.1801 11.6222 15.008 11.2696 14.9425C10.7995 14.8553 10.3369 14.891 9.88186 15.0498C9.36808 15.1978 8.84672 15.2226 8.31779 15.1244C7.9064 15.0481 7.60497 14.8705 7.41351 14.5916C6.94759 14.8093 6.46319 14.9626 5.96032 15.0517C5.40958 15.0711 4.94366 15.2888 4.56257 15.7046C3.59619 15.3427 2.78552 14.7969 2.13055 14.0671C1.47558 13.3374 0.989345 12.5173 0.671846 11.6068C0.295577 10.6855 0.0771386 9.73267 0.0165302 8.74829C-0.0331735 7.70512 0.0292111 6.71317 0.203684 5.77243C0.676256 5.19113 1.31636 4.8538 2.12399 4.76044C2.93162 4.66708 3.62504 4.37005 4.20425 3.86937C4.58293 4.12212 4.96161 4.37487 5.34029 4.62763C5.6711 4.81067 6.07159 4.94584 6.54175 5.03311C7.12945 5.1422 7.65081 5.11734 8.10582 4.95852C8.56083 4.7997 9.02342 4.76393 9.49358 4.85121C9.78743 4.90575 10.0943 5.05395 10.4142 5.29579C10.891 5.01938 11.4288 4.90632 12.0274 4.95662C12.6369 4.94812 13.2115 4.96357 13.7514 5.00295C14.3609 4.99446 14.9171 4.94565 15.42 4.85654C15.9228 4.76742 16.317 4.44525 16.6023 3.89002C17.0985 4.16459 17.6405 4.35642 18.2282 4.46552C18.9334 4.59643 19.655 4.63915 20.393 4.59367C21.1419 4.4894 21.832 4.37422 22.4633 4.24813C23.0946 4.12204 23.6617 4.01443 24.1646 3.92532C24.6784 3.77741 25.0234 3.71982 25.1997 3.75255C25.4936 3.80709 25.7711 3.94983 26.0322 4.18077C26.3042 4.35291 26.5872 4.46625 26.881 4.5208C27.4687 4.62989 28.0598 4.55714 28.6541 4.30255C29.3073 4.05887 29.9016 3.80427 30.4372 3.53877C30.8638 3.86123 31.2827 4.06064 31.6941 4.13701C32.5169 4.28974 33.3833 4.20729 34.2933 3.88965C35.2621 3.58292 36.2461 3.52228 37.2452 3.70774C37.6565 3.78411 37.9743 3.87351 38.1985 3.97594C39.6702 3.5801 41.3954 3.29215 43.3742 3.11208C45.4118 2.94292 47.1946 3.00017 48.7226 3.28381C49.6762 2.73099 50.7386 2.41123 51.9098 2.32452C53.0809 2.23782 54.2706 2.21537 55.4787 2.25717C56.6868 2.29897 57.8765 2.27651 59.0476 2.18981C60.2775 2.11402 61.4281 1.81062 62.4993 1.27962C62.7713 1.45175 63.1076 1.6054 63.5081 1.74057C63.9195 1.81693 64.1915 1.98907 64.3242 2.25698C64.6399 2.19394 64.8837 2.02633 65.0558 1.75417C65.2279 1.48201 65.3705 1.20439 65.4838 0.921324C65.5535 0.873437 65.6765 0.865858 65.8528 0.898585C66.1467 0.953132 66.2424 1.09254 66.14 1.31682C66.0376 1.54109 66.1333 1.6805 66.4272 1.73505C66.6035 1.76778 66.9137 1.73413 67.3578 1.63411C67.8716 1.4862 68.4735 1.35465 69.1636 1.23947C69.8537 1.12429 70.5971 1.04942 71.3939 1.01485C72.2015 0.921486 72.9579 0.940261 73.6632 1.07117L74.0158 1.13663L74.4729 1.13025C74.7886 1.06721 75.1282 1.03902 75.4917 1.04568C75.8661 0.99354 76.2112 0.935949 76.5268 0.872904C76.9013 0.820768 77.1473 0.805609 77.2648 0.827428C78.6341 0.655861 80.0218 0.548545 81.4281 0.505479C82.8931 0.473323 84.3015 0.582702 85.6532 0.833617C86.9461 1.07362 88.1073 1.53245 89.1367 2.21009C90.177 2.82894 90.9756 3.76784 91.5324 5.02678Z" fill="#181818"/>
<path d="M136.984 52.5104C136.533 52.9741 136.219 53.5239 136.04 54.1597C135.861 54.7956 135.723 55.3781 135.625 55.9072C135.494 56.6128 135.363 57.3183 135.232 58.0239C135.171 58.6816 135.08 59.3338 134.96 59.9805L134.715 61.3034C134.521 61.6932 134.269 62.072 133.957 62.44C133.646 62.8079 133.393 63.1867 133.199 63.5765C131.973 65.5992 131.158 67.6983 130.755 69.8738L130.722 70.0501C130.297 70.7012 129.883 71.2934 129.48 71.8268C129.136 72.3711 128.792 72.9154 128.448 73.4597C128.115 73.9453 127.83 74.5005 127.592 75.1254C127.365 75.6916 127.205 76.3917 127.111 77.2257C125.907 79.1309 124.471 80.8105 122.803 82.2647C121.146 83.6601 119.507 85.1197 117.887 86.6436C116.566 86.8848 115.305 87.2895 114.105 87.8574C112.965 88.4363 111.837 89.1089 110.722 89.8751C108.791 90.1248 106.873 90.4682 104.968 90.9053C103.063 91.3424 101.286 92.0768 99.6354 93.1085C98.497 93.0188 97.3476 92.9879 96.1874 93.0158C95.0271 93.0437 93.8744 93.1946 92.7293 93.4686L91.6715 93.2723C91.1425 93.1741 90.7823 92.9856 90.5909 92.7068C89.7505 92.9765 88.9026 93.1232 88.0471 93.1469C87.2025 93.1117 86.3688 93.0178 85.546 92.8651C84.4882 92.6687 83.4412 92.4135 82.4052 92.0996C81.4388 91.7377 80.443 91.3704 79.4179 90.9977C78.9828 90.0654 78.2745 89.2953 77.293 88.6874C76.3224 88.0207 75.4638 87.4052 74.7174 86.8409C73.4492 84.1726 72.6349 81.6799 72.2743 79.3626C71.9247 76.9866 71.5947 74.3405 71.2845 71.4243C71.5547 70.623 71.9076 69.8674 72.3432 69.1576C72.7897 68.389 73.0708 67.5289 73.1865 66.5773C74.8114 63.7162 76.705 61.2092 78.8673 59.0561C81.0994 56.8552 83.5446 54.8155 86.2032 52.937C86.2686 52.5842 86.3819 52.3011 86.5431 52.0878C86.763 51.8853 86.8578 51.538 86.8275 51.0458C86.8754 51.1155 86.9875 51.1667 87.1638 51.1994C87.6339 51.2867 87.9496 51.2237 88.1108 51.0103C88.2828 50.7381 88.3722 50.4202 88.3788 50.0565C90.7454 49.097 92.9444 47.8934 94.9759 46.4459C97.0661 45.0093 99.3369 43.9103 101.788 43.149C102.063 42.6525 102.438 42.2661 102.915 41.9897C103.392 41.7133 103.792 41.3617 104.114 40.935C106.093 40.7549 107.944 40.2775 109.669 39.5029C111.393 38.7282 113.184 38.0874 115.041 37.5807C116.079 37.2261 117.026 37.0369 117.881 37.0133C118.807 36.9417 119.791 36.8811 120.833 36.8314C121.208 36.7792 121.547 36.751 121.852 36.7468C122.157 36.7425 122.485 36.7731 122.838 36.8386C123.896 37.035 124.886 37.4317 125.809 38.0287C126.743 38.5669 127.739 38.9342 128.796 39.1306C129.09 39.1851 129.325 39.2288 129.502 39.2615C129.748 39.2463 129.994 39.2312 130.24 39.216C131.01 40.6362 132.099 41.8115 133.507 42.7419C133.696 43.6893 133.966 44.53 134.316 45.264C134.725 46.009 135.134 46.7539 135.543 47.4988C135.963 48.185 136.307 48.9484 136.577 49.7891C136.916 50.582 137.052 51.489 136.984 52.5104ZM127.318 55.4601C127.373 55.1661 127.392 54.8961 127.377 54.65C126.822 54.3645 126.307 54.0257 125.833 53.6335C125.359 53.2413 124.798 52.9853 124.152 52.8653C123.74 52.7889 123.313 52.8007 122.868 52.9007C122.886 52.4783 122.764 52.1516 122.503 51.9206C122.301 51.7006 122.034 51.4991 121.703 51.316C121.442 51.0851 121.141 50.9075 120.799 50.7832C120.527 50.6111 120.295 50.3856 120.104 50.1068C120.015 49.6037 119.896 49.0951 119.748 48.5811C119.67 48.0192 119.388 47.5716 118.903 47.2382C118.276 47.6692 117.577 47.9956 116.807 48.2175C116.047 48.3806 115.258 48.5382 114.439 48.6904C113.679 48.8534 112.909 49.0753 112.127 49.3559C111.404 49.6475 110.753 50.0436 110.174 50.5443L108.587 50.2498C108.115 50.8311 107.522 51.2381 106.811 51.4709C106.11 51.6449 105.469 51.9822 104.89 52.4829C103.863 52.7787 102.872 53.203 101.918 53.7558C101.034 54.2608 100.14 54.8245 99.2338 55.447C98.339 56.0108 97.4387 56.6039 96.5329 57.2264C95.6859 57.8599 94.791 58.4236 93.8483 58.9176C92.7789 60.4221 91.6596 61.7044 90.4903 62.7646C89.3906 63.7768 88.3149 64.824 87.2631 65.906C86.2701 66.9989 85.3435 68.2257 84.4831 69.5865C83.6925 70.8994 83.1009 72.6142 82.7083 74.7309L82.5448 75.6128C82.4902 75.9068 82.4651 76.2062 82.4694 76.5111C83.0807 77.4761 83.5342 78.4726 83.8299 79.5006C84.1844 80.5395 84.9111 81.3738 86.0102 82.0036C87.0984 82.6922 88.2944 83.127 89.5983 83.3083C90.9609 83.5004 92.2266 83.8874 93.3953 84.4692C96.3144 84.4637 99.176 84.113 101.98 83.4171C104.854 82.6733 107.624 81.667 110.291 80.3983C110.698 80.1698 111.164 79.9522 111.689 79.7455C112.224 79.48 112.672 79.1981 113.031 78.8999C113.379 78.6605 113.674 78.3807 113.916 78.0607C114.217 77.7515 114.512 77.4718 114.801 77.2215C115.413 76.5444 116.084 75.8782 116.813 75.223C117.543 74.5677 118.291 73.9767 119.057 73.4499C119.591 72.211 120.202 71.0472 120.89 69.9585C121.589 68.8111 122.283 67.693 122.971 66.6044C123.66 65.5158 124.265 64.3813 124.788 63.2012C125.37 62.0319 125.786 60.7711 126.037 59.4188C126.091 59.1248 126.122 58.796 126.128 58.4323C126.194 58.0796 126.225 57.7507 126.22 57.4458C126.81 56.8863 127.176 56.2244 127.318 55.4601Z" fill="#181818"/>
<path d="M196.244 73.7284C195.9 74.2727 195.561 74.7876 195.228 75.2731C194.895 75.7587 194.609 76.3139 194.372 76.9388C193.906 77.1565 193.392 77.3044 192.831 77.3826C192.339 77.4129 191.812 77.4671 191.25 77.5453C190.699 77.5648 190.167 77.6484 189.653 77.7963C189.209 77.8963 188.831 78.1303 188.52 78.4983C188.18 79.3475 187.939 80.1543 187.798 80.9186C187.612 81.9181 187.63 82.8034 187.852 83.5744C187.578 84.0708 187.357 84.6076 187.189 85.1846C187.021 85.7617 186.888 86.3148 186.79 86.844C186.43 88.7842 186.305 90.7681 186.416 92.7957C186.537 94.7644 186.447 96.7244 186.146 98.6756C186.091 98.9695 186.002 99.2875 185.878 99.6293C185.753 99.9712 185.664 100.289 185.61 100.583C185.381 101.818 185.698 102.728 186.562 103.314C186.331 103.576 186.194 103.824 186.15 104.059C186.063 104.529 186.046 104.952 186.098 105.326C186.15 105.701 186.108 106.089 185.973 106.489C186.158 107.132 186.354 107.716 186.56 108.24C186.778 108.707 186.885 109.274 186.883 109.943C186.319 110.689 185.678 111.361 184.959 111.957C184.251 112.495 183.687 113.242 183.267 114.198C183.043 114.095 182.784 114.017 182.49 113.962C182.078 113.886 181.739 113.914 181.471 114.047C181.203 114.18 180.959 114.347 180.74 114.55C180.567 114.822 180.371 115.059 180.152 115.262C179.921 115.523 179.647 115.685 179.332 115.748L179.067 115.699C178.763 115.703 178.504 115.625 178.29 115.463C178.125 115.372 177.954 115.31 177.778 115.277C177.66 115.255 177.414 115.27 177.04 115.323C176.679 114.647 176.486 113.882 176.463 113.026C176.428 112.229 176.482 111.448 176.623 110.684C176.776 109.861 177.03 109.147 177.385 108.544C176.837 107.895 176.572 107.025 176.592 105.934C176.671 104.854 176.688 103.945 176.642 103.206C176.576 100.944 176.41 98.7234 176.145 96.5455C175.939 94.3785 175.979 92.1964 176.265 89.9992C176.359 89.1651 176.477 88.3659 176.618 87.6015L177.469 83.0155C177.611 82.2511 177.776 81.5216 177.966 80.827C178.064 80.2978 178.186 79.8035 178.332 79.344C178.548 78.8367 178.705 78.3184 178.803 77.7893C178.934 77.0837 178.824 76.3639 178.474 75.6299C174.269 75.0317 170.16 75.0597 166.148 75.7138C162.205 76.32 158.214 77.1908 154.173 78.3262C153.687 79.6349 153.295 80.9305 152.996 82.2131C152.698 83.4957 152.423 84.8132 152.172 86.1655L151.452 90.046C151.18 91.5159 151.01 92.7616 150.942 93.7829C150.919 95.5425 151.526 97.0236 152.762 98.2262C154.068 99.3809 155.412 100.33 156.794 101.073C156.571 101.944 156.253 102.676 155.84 103.268C155.437 103.801 154.951 104.289 154.383 104.731C153.884 105.125 153.327 105.508 152.711 105.88C152.094 106.252 151.467 106.683 150.829 107.173C150.414 106.792 149.982 106.499 149.533 106.294C149.085 106.089 148.596 105.937 148.067 105.839C147.549 105.682 147.031 105.525 146.513 105.368C145.995 105.211 145.488 104.995 144.992 104.721L143.543 101.715C143.06 100.713 142.519 99.7002 141.918 98.6765L142.065 97.8828C142.36 96.2953 142.349 94.712 142.034 93.133C141.719 91.554 141.557 89.9729 141.546 88.3897C141.821 87.8932 142.036 87.3859 142.193 86.8676C142.35 86.3494 142.483 85.7963 142.592 85.2083C142.81 84.0324 142.964 82.875 143.054 81.736C143.202 80.608 143.439 79.4963 143.764 78.401L143.323 78.3192C142.794 78.221 142.208 78.2644 141.566 78.4492C140.935 78.5753 140.292 78.7602 139.639 79.0039C139.056 79.1997 138.472 79.3955 137.889 79.5913C137.375 79.7392 136.942 79.7804 136.589 79.715C136.413 79.6822 136.242 79.6201 136.077 79.5286C135.911 79.4371 135.711 79.3695 135.476 79.3258C135.182 79.2713 134.808 79.3234 134.353 79.4823C133.898 79.6411 133.408 79.8238 132.883 80.0305C132.311 80.1675 131.738 80.3045 131.166 80.4415C130.593 80.5785 130.042 80.5979 129.513 80.4998C128.691 80.347 127.933 79.8415 127.241 78.9832C127.211 78.4911 127.263 78.0446 127.399 77.644C127.475 77.2324 127.557 76.7914 127.644 76.3211C127.731 75.8507 127.736 75.3346 127.657 74.7727C128.211 74.0847 128.878 73.6004 129.66 73.3197C130.393 72.9693 131.175 72.6887 132.004 72.4777C132.786 72.1971 133.591 71.9513 134.421 71.7403C135.261 71.4706 136.006 71.0614 136.655 70.5128L137.184 70.611C138.006 70.7637 138.774 70.7237 139.486 70.4909C140.256 70.2691 141.077 70.2694 141.948 70.4918C142.263 70.4287 142.551 70.026 142.81 69.2834L143.146 69.4371C144.439 69.6771 145.667 69.4489 146.83 68.7524C148.152 65.227 149.363 61.6505 150.461 58.0227C151.559 54.3949 152.452 50.7289 153.139 47.0248C153.205 46.672 153.152 46.2974 152.983 45.901C152.953 45.4088 152.976 44.9569 153.052 44.5453L153.297 43.2224C153.417 42.5757 153.572 41.905 153.762 41.2103C153.951 40.5157 154.229 39.8374 154.595 39.1755C155.248 38.9318 155.898 38.87 156.544 38.99C157.308 39.1318 158.021 39.3858 158.683 39.7519C159.414 40.0701 160.121 40.3534 160.805 40.6019C161.236 41.2293 161.509 41.8881 161.624 42.5785C161.798 43.2798 161.849 43.9887 161.777 44.7052C161.715 45.3629 161.59 46.039 161.4 46.7337C161.28 47.3804 161.16 48.0272 161.04 48.6739C160.801 49.9674 160.713 51.2588 160.778 52.5481C160.843 53.8373 160.766 55.0699 160.548 56.2459C160.493 56.5398 160.332 56.7532 160.065 56.886C159.866 56.9708 159.707 57.3366 159.587 57.9834C159.467 58.6301 159.401 59.3172 159.388 60.0446C159.374 60.7719 159.302 61.4884 159.171 62.194C159.019 63.0171 158.743 63.8478 158.344 64.6861C157.946 65.5244 157.582 66.3388 157.253 67.1292C160.834 67.4898 164.53 67.7197 168.341 67.8191C172.153 67.9184 175.854 67.6322 179.443 66.9605C179.524 66.8539 179.586 66.6829 179.63 66.4477C179.695 66.095 179.731 65.7367 179.738 65.373C179.745 65.0094 179.786 64.6217 179.862 64.2102C179.993 63.5046 180.332 62.9897 180.878 62.6654C180.89 60.9645 180.989 59.2801 181.177 57.612C181.365 55.9439 181.612 54.2867 181.917 52.6404L182.849 47.6133C183.155 45.967 183.431 44.3153 183.677 42.6581C184.202 42.4514 184.729 42.3971 185.258 42.4953C185.904 42.6153 186.459 42.9008 186.923 43.3518C187.456 43.7548 188.104 44.0273 188.868 44.1691C189.397 44.2673 189.854 44.2609 190.24 44.15C190.777 44.8579 191.076 45.7041 191.137 46.6885C191.197 47.6729 191.223 48.6812 191.214 49.7134C191.205 50.7457 191.196 51.7779 191.187 52.8102C191.247 53.7946 191.546 54.6408 192.084 55.3487L192.123 55.6297C192.079 55.8648 191.929 56.0194 191.672 56.0934C191.415 56.1673 191.254 56.3807 191.189 56.7335L191.123 57.0862C191.184 58.0706 191.18 59.0735 191.112 60.0948C191.045 61.1162 190.942 62.1615 190.804 63.2307C190.737 64.2521 190.698 65.2789 190.689 66.3111C190.691 67.2846 190.851 68.2265 191.168 69.1369C191.473 69.1327 191.86 69.1742 192.33 69.2615C193.506 69.4797 194.341 70.0603 194.834 71.0035C195.398 71.8988 195.868 72.807 196.244 73.7284Z" fill="#181818"/>
<path d="M263 68.7863C262.752 69.47 262.461 70.0547 262.128 70.5402C261.864 70.9778 261.715 71.6191 261.68 72.4641C261.081 72.4138 260.573 72.5323 260.155 72.8196C259.806 73.0591 259.476 73.3628 259.165 73.7307C258.912 74.1095 258.625 74.5123 258.302 74.939C258.05 75.3179 257.744 75.6564 257.385 75.9547C257.462 78.1586 257.329 80.3537 256.984 82.5401C256.639 84.7265 256.388 86.8998 256.231 89.0601C256.023 91.8192 255.968 94.5763 256.065 97.3312C256.231 100.038 256.064 102.744 255.562 105.449C255.409 106.272 255.238 107.031 255.049 107.725C254.918 108.431 254.782 109.166 254.64 109.93C254.553 110.401 254.46 110.9 254.362 111.429C254.333 111.911 254.275 112.387 254.188 112.857C253.872 114.562 253.321 116.223 252.534 117.841C251.807 119.47 251.167 121.115 250.616 122.777C249.791 123.292 249.043 123.883 248.372 124.55C247.76 125.227 247.13 125.839 246.481 126.388C245.832 126.937 245.111 127.381 244.319 127.72C243.515 128.118 242.568 128.307 241.478 128.287C241.192 128.843 240.758 129.218 240.175 129.414C239.65 129.621 239.162 129.956 238.711 130.42L238.535 130.387C237.066 130.114 235.84 129.674 234.859 129.066C233.877 128.458 232.965 127.802 232.123 127.098C231.34 126.406 230.533 125.678 229.701 124.915C228.87 124.153 227.87 123.481 226.701 122.899C225.306 121.241 224.08 119.493 223.023 117.655C221.977 115.757 220.721 114.004 219.257 112.394C219.064 111.142 218.685 110.068 218.122 109.173C217.617 108.288 217.134 107.286 216.673 106.167C216.455 105.701 216.291 105.275 216.18 104.889C216.128 104.515 216.028 104.071 215.88 103.557C215.791 103.053 215.557 102.675 215.179 102.423C214.859 102.181 214.574 101.915 214.324 101.625C214.191 99.7154 213.826 97.9143 213.228 96.2219C212.63 94.5296 211.874 92.8688 210.961 91.2395C210.488 91.8208 210.063 92.4718 209.687 93.1925C209.379 93.8653 209.067 94.5676 208.749 95.2992C208.442 95.972 208.07 96.6633 207.635 97.3731C207.269 98.035 206.826 98.6218 206.305 99.1334L206.256 99.398C206.201 99.6919 206.286 99.8902 206.51 99.9926C206.735 100.095 206.819 100.293 206.765 100.587C206.754 100.646 206.714 100.699 206.644 100.747C206.633 100.806 206.622 100.865 206.611 100.924C206.274 101.104 205.984 101.355 205.743 101.675C205.56 102.006 205.228 102.157 204.747 102.128C204.751 102.433 204.726 102.733 204.671 103.027L204.524 103.82C204.208 105.526 203.686 107.192 202.958 108.821C202.289 110.461 201.791 112.162 201.464 113.926L201.251 115.073C201.175 115.484 201.134 115.872 201.127 116.236C201.179 116.61 201.29 116.996 201.46 117.392C201.629 117.789 201.687 118.134 201.632 118.428C201.556 118.839 201.309 119.189 200.891 119.476C201.248 119.847 201.658 120.257 202.121 120.708C202.585 121.159 202.984 121.629 203.319 122.117C203.702 122.674 203.997 123.215 204.204 123.74C204.399 124.324 204.443 124.91 204.333 125.498C204.148 126.497 203.694 127.143 202.971 127.435C202.248 127.726 201.395 127.902 200.411 127.963C199.486 128.034 198.507 128.066 197.476 128.057C196.492 128.117 195.627 128.352 194.883 128.761L194.618 128.712C193.913 128.581 193.422 128.277 193.146 127.8C192.87 127.323 192.379 127.019 191.674 126.888C190.895 124.858 190.513 122.659 190.527 120.289C190.53 117.979 190.722 115.794 191.104 113.737C191.573 111.208 192.276 108.724 193.216 106.283C194.096 103.831 195.088 101.43 196.193 99.0809C197.238 96.7205 198.337 94.4005 199.49 92.1208C200.712 89.7932 201.875 87.4546 202.979 85.1052L203.117 84.857C203.171 84.563 203.121 84.3409 202.967 84.1905C202.871 84.0511 202.845 83.8638 202.889 83.6286C202.91 83.5111 202.951 83.4577 203.009 83.4686C203.295 82.9134 203.575 82.3876 203.849 81.8911C204.182 81.4056 204.468 80.8504 204.705 80.2254C205.363 78.6446 205.909 77.0126 206.343 75.3293C206.846 73.5981 207.256 71.88 207.572 70.1749C207.947 68.4808 208.322 66.7866 208.697 65.0924C209.142 63.3503 209.669 61.654 210.279 60.0035C210.837 59.6204 211.37 59.2025 211.88 58.7497C212.389 58.2969 213.006 57.9247 213.728 57.6331C214.893 57.9101 216.036 58.3047 217.156 58.8168C218.277 59.329 219.307 60.0066 220.245 60.8498C220.481 63.5089 220.482 66.1244 220.248 68.6963C220.073 71.2791 220.075 73.8946 220.252 76.5428L220.203 76.8074C220.149 77.1013 220.268 77.2756 220.562 77.3302C220.926 77.3368 221.174 77.4741 221.306 77.742C221.156 77.8966 221.03 78.086 220.927 78.3103C220.884 78.5455 220.84 78.7807 220.797 79.0158L220.519 80.5151C220.549 81.0073 220.603 81.5344 220.681 82.0963C220.759 82.6581 221.081 83.0524 221.647 83.2791C221.592 85.2151 221.711 87.0314 222.005 88.728C222.298 90.4246 222.69 92.0788 223.182 93.6905C223.673 95.3022 224.223 96.9248 224.832 98.5584C225.452 100.133 226.085 101.802 226.731 103.564C227.993 104.953 229.017 106.481 229.802 108.148C230.598 109.755 231.4 111.333 232.207 112.882C233.083 114.383 234.105 115.758 235.271 117.009C236.496 118.27 238.204 119.226 240.393 119.875C240.731 119.695 240.997 119.41 241.19 119.02L241.86 117.867C242.113 117.488 242.355 117.168 242.585 116.907C242.886 116.598 243.258 116.393 243.702 116.293C244.125 114.669 244.553 113.015 244.987 111.331C245.48 109.659 246.162 108.113 247.033 106.694C246.837 106.11 246.81 105.436 246.952 104.671C247.061 104.084 247.194 103.53 247.351 103.012C247.567 102.505 247.724 101.987 247.822 101.457C248.029 100.34 247.963 99.3853 247.623 98.5925C247.7 98.1809 247.806 97.7748 247.941 97.3741C248.087 96.9146 248.345 96.5064 248.715 96.1494C248.463 94.8862 248.31 93.5806 248.256 92.2325C248.261 90.8953 248.389 89.5506 248.639 88.1983C248.781 87.434 249.016 86.6566 249.345 85.8662C249.156 84.9188 249.112 83.8462 249.213 82.6485L249.531 78.967C249.642 77.7105 249.678 76.5313 249.64 75.4293C249.601 74.3273 249.318 73.393 248.792 72.6262C249.242 72.1625 249.533 71.5779 249.664 70.8723C249.882 69.6964 249.913 68.5465 249.757 67.4228C249.6 66.299 249.631 65.1491 249.849 63.9732C250.002 63.1501 250.331 62.3596 250.836 61.602C252.118 61.9008 253.355 62.2823 254.545 62.7466C255.805 63.163 257.053 63.4857 258.287 63.7148C258.552 64.2506 258.893 64.7092 259.308 65.0904C259.724 65.4717 260.169 65.8584 260.643 66.2506C261.129 66.5839 261.579 66.9412 261.995 67.3225C262.469 67.7147 262.804 68.2026 263 68.7863Z" fill="#181818"/>
<path d="M142.061 150.129C142.061 153.538 141.612 156.677 140.716 159.548C139.819 162.418 138.653 165.169 137.219 167.8C135.844 170.431 134.35 173.033 132.736 175.604C131.122 178.175 129.598 180.896 128.163 183.767C127.805 183.767 127.536 183.856 127.356 184.036C127.237 184.215 127.117 184.454 126.998 184.753C126.938 184.993 126.818 185.232 126.639 185.471C126.519 185.65 126.28 185.74 125.922 185.74C125.384 187.056 124.696 188.311 123.86 189.507C123.023 190.644 122.126 191.78 121.17 192.916C120.273 193.992 119.377 195.099 118.48 196.235C117.643 197.371 116.896 198.597 116.238 199.913H115.342C112.114 204.577 108.468 208.763 104.403 212.47C100.398 216.178 96.0051 219.497 91.2233 222.427C91.1037 222.786 90.9244 223.085 90.6853 223.324C90.4462 223.563 90.3864 223.892 90.506 224.311C89.8485 224.67 89.2806 225.118 88.8024 225.656C88.384 226.254 87.9656 226.852 87.5472 227.45C87.1288 228.048 86.6805 228.616 86.2023 229.155C85.7839 229.753 85.216 230.201 84.4987 230.5C83.6021 230.321 82.7354 230.171 81.8986 230.051C81.1216 229.932 80.3146 229.842 79.4778 229.782C79.1191 229.782 78.7605 229.782 78.4019 229.782C78.0432 229.842 77.7145 229.842 77.4156 229.782C76.7581 229.663 76.1902 229.394 75.7121 228.975C75.2936 228.616 74.666 228.437 73.8292 228.437C73.4108 228.437 73.082 228.467 72.8429 228.527C72.3647 227.689 71.7969 226.822 71.1394 225.925C70.5417 225.088 70.2428 224.161 70.2428 223.145C70.2428 222.367 70.3325 221.65 70.5118 220.992C70.7509 220.334 70.8704 219.646 70.8704 218.929C70.8704 217.494 70.6014 216.088 70.0635 214.713C69.5853 213.338 69.3462 211.932 69.3462 210.497C69.3462 210.019 69.406 209.57 69.5255 209.152C69.6451 208.673 69.7048 208.195 69.7048 207.716C69.7048 207.178 69.4657 206.7 68.9875 206.281C69.0473 205.982 69.1669 205.683 69.3462 205.384C69.5255 205.085 69.6152 204.756 69.6152 204.398C69.7347 203.919 69.7646 203.411 69.7048 202.873C69.6451 202.275 69.6152 201.736 69.6152 201.258C69.6152 200.002 69.6749 198.746 69.7945 197.491C69.914 196.235 70.183 195.009 70.6014 193.813C70.5417 193.454 70.452 193.125 70.3325 192.826L69.9738 191.929C70.3922 190.674 70.6612 189.268 70.7807 187.713C70.9003 186.159 70.9601 184.604 70.9601 183.049V178.295C70.9601 176.74 71.0497 175.275 71.229 173.9C71.3486 173.302 71.4681 172.734 71.5877 172.195C71.767 171.597 71.8567 171.029 71.8567 170.491C71.8567 170.013 71.767 169.594 71.5877 169.235C71.4084 168.817 71.1693 168.428 70.8704 168.069C71.2888 167.95 71.5279 167.71 71.5877 167.352C71.6475 166.933 71.6774 166.574 71.6774 166.275C71.6774 165.438 71.5279 164.511 71.229 163.495C71.4681 162.478 71.6176 161.461 71.6774 160.445C71.7371 159.368 71.767 158.322 71.767 157.305C71.767 153.717 71.5279 150.189 71.0497 146.721C70.6313 143.252 70.3623 139.754 70.2428 136.226H69.9738C69.5554 136.226 69.2266 136.316 68.9875 136.495C68.7485 136.675 68.5094 136.884 68.2703 137.123C68.0312 137.302 67.7622 137.482 67.4633 137.661C67.1645 137.781 66.8058 137.811 66.3874 137.751C65.6701 138.588 64.8333 139.306 63.8769 139.904C62.9803 140.502 62.0239 141.04 61.0078 141.518C59.9916 141.997 58.9456 142.445 57.8697 142.864C56.7938 143.223 55.7776 143.581 54.8213 143.94C53.9844 143.641 53.2671 143.163 52.6694 142.505C52.0717 141.787 51.5038 141.07 50.9659 140.352C50.9061 140.113 50.8762 139.874 50.8762 139.635V138.917C50.8762 137.243 51.2647 135.987 52.0418 135.15C52.8188 134.253 53.6557 133.206 54.5523 132.01H55.0006C55.2994 132.01 55.5684 132.07 55.8075 132.19C55.9868 132.309 56.2259 132.369 56.5248 132.369H56.7938C58.5272 130.934 60.3503 129.798 62.263 128.96C64.2356 128.063 66.2679 127.376 68.3599 126.897C69.2565 126 70.1531 125.313 71.0497 124.834C72.0061 124.356 73.1119 124.117 74.3672 124.117C74.666 124.117 74.9948 124.147 75.3534 124.206C75.7718 124.206 76.1305 124.236 76.4293 124.296C78.88 123.16 81.1813 122.203 83.3332 121.426C85.5448 120.588 88.0852 120.17 90.9543 120.17C91.3129 120.17 91.552 120.08 91.6716 119.901C91.8509 119.721 92.0003 119.542 92.1199 119.363C92.2394 119.123 92.3589 118.914 92.4785 118.735C92.598 118.555 92.8073 118.466 93.1061 118.466C93.1061 118.585 93.136 118.765 93.1958 119.004C93.2555 119.243 93.405 119.363 93.6441 119.363C93.8832 119.363 94.0924 119.303 94.2717 119.183C94.5108 119.004 94.7798 118.914 95.0786 118.914C95.3775 118.914 95.5867 119.123 95.7063 119.542C96.3638 119.123 96.9914 118.735 97.5891 118.376C98.1869 118.017 98.8444 117.748 99.5616 117.569C100.458 117.748 101.355 117.897 102.251 118.017C103.208 118.137 104.164 118.196 105.121 118.196C105.838 118.196 106.555 118.167 107.272 118.107C107.99 117.987 108.617 117.688 109.155 117.21C109.394 117.15 109.514 117.27 109.514 117.569C110.052 118.047 110.62 118.376 111.217 118.555C111.815 118.675 112.443 118.765 113.1 118.824C113.758 118.824 114.415 118.854 115.073 118.914C115.73 118.974 116.328 119.183 116.866 119.542C117.344 119.662 117.733 119.871 118.032 120.17C118.33 120.409 118.719 120.618 119.197 120.798C119.556 120.917 120.034 121.007 120.632 121.067C121.289 121.127 121.767 121.246 122.066 121.426C122.365 121.545 122.515 121.755 122.515 122.054C122.574 122.293 122.754 122.502 123.053 122.681C123.591 123.1 124.308 123.369 125.204 123.489C126.101 123.549 126.878 123.818 127.536 124.296C127.775 125.612 128.432 126.479 129.508 126.897C130.584 127.316 131.63 127.735 132.646 128.153C133.005 128.512 133.124 128.93 133.005 129.409C133.722 129.947 134.35 130.545 134.888 131.203C135.485 131.861 136.023 132.578 136.502 133.356C137.04 134.073 137.548 134.791 138.026 135.508C138.504 136.226 139.072 136.884 139.729 137.482C139.67 138.02 139.729 138.439 139.909 138.738C140.148 139.037 140.208 139.485 140.088 140.083C140.805 140.741 141.463 141.608 142.061 142.684C141.702 143.223 141.523 143.821 141.523 144.478C141.523 145.076 141.612 145.674 141.792 146.272C141.971 146.87 142.061 147.468 142.061 148.066V150.129ZM133.722 148.156C133.722 146.422 133.393 144.747 132.736 143.133C132.078 141.458 131.511 139.814 131.032 138.199C130.255 138.199 129.747 137.93 129.508 137.392C129.329 136.794 128.97 136.286 128.432 135.867C127.297 135.628 126.579 134.761 126.28 133.266C125.085 132.788 123.86 132.249 122.604 131.651C121.349 131.053 120.303 130.216 119.466 129.14C117.314 128.482 115.133 127.824 112.921 127.166C110.769 126.449 108.558 126.09 106.286 126.09C105.868 126.09 105.479 126.12 105.121 126.18C104.822 126.18 104.523 126.18 104.224 126.18C103.746 126.18 103.238 126.269 102.7 126.449C102.162 126.628 101.654 126.718 101.176 126.718C100.638 126.718 100.1 126.539 99.5616 126.18C98.3662 126.838 97.0512 127.346 95.6166 127.705C94.2418 128.063 92.8371 128.392 91.4026 128.691C89.968 128.93 88.5633 129.259 87.1885 129.678C85.8138 130.037 84.5884 130.605 83.5125 131.382C83.1538 131.263 82.7952 131.173 82.4366 131.113C82.1377 131.053 81.8388 131.023 81.54 131.023C81.002 131.023 80.5836 131.143 80.2847 131.382C80.1054 131.502 79.9859 131.651 79.9261 131.831C79.9261 132.01 79.8962 132.219 79.8364 132.459C79.8364 132.638 79.7766 132.788 79.6571 132.907C79.5376 133.027 79.2985 133.057 78.9398 132.997C78.9398 133.296 78.9099 133.565 78.8502 133.804C78.8502 134.043 78.8502 134.312 78.8502 134.611C78.8502 136.166 78.9996 137.721 79.2985 139.276C79.6571 140.771 79.8364 142.296 79.8364 143.85C79.8364 144.389 79.8065 144.957 79.7468 145.555C79.687 146.093 79.5674 146.631 79.3881 147.169C79.687 147.887 79.8364 148.664 79.8364 149.502C79.8962 150.339 79.9261 151.176 79.9261 152.013C79.9261 152.85 79.956 153.688 80.0157 154.525C80.0755 155.302 80.2847 156.05 80.6434 156.767C80.464 157.664 80.3445 158.561 80.2847 159.458C80.2249 160.355 80.1951 161.252 80.1951 162.149C80.1951 164.242 80.2847 166.305 80.464 168.338C80.7031 170.372 80.8227 172.435 80.8227 174.528C80.8227 175.066 80.7928 175.634 80.733 176.232C80.733 176.83 80.7031 177.428 80.6434 178.026C80.5238 178.803 80.3146 179.551 80.0157 180.268C79.7169 180.986 79.5674 181.763 79.5674 182.601C79.5674 183.139 79.5973 183.707 79.6571 184.305C79.7169 184.843 79.7468 185.411 79.7468 186.009C79.7468 186.248 79.7169 186.488 79.6571 186.727C79.6571 186.906 79.6571 187.115 79.6571 187.355C79.3582 189.448 79.1191 191.571 78.9398 193.723C78.7605 195.876 78.6708 197.999 78.6708 200.092C78.6708 202.065 78.7306 204.039 78.8502 206.012C78.9697 207.926 79.149 209.869 79.3881 211.843C79.149 212.261 79.0295 212.74 79.0295 213.278C79.0295 214.115 79.2387 214.952 79.6571 215.789C80.0755 216.686 80.7031 217.284 81.54 217.583C83.4527 216.866 85.216 215.909 86.8299 214.713C88.5036 213.577 90.1772 212.411 91.8509 211.215C92.2693 210.916 92.8969 210.527 93.7337 210.049C94.5706 209.51 95.1384 209.122 95.4373 208.882C95.7361 208.643 95.9752 208.404 96.1546 208.165C96.3937 207.866 96.6626 207.567 96.9615 207.268L100.907 203.052C103.178 200.72 105.419 198.358 107.631 195.966C109.902 193.574 111.995 191.032 113.907 188.341C114.445 187.504 114.983 186.697 115.521 185.919C116.059 185.082 116.567 184.215 117.045 183.318C117.284 183.019 117.464 182.69 117.583 182.331C117.703 181.913 117.912 181.554 118.211 181.255C118.39 181.016 118.599 180.777 118.839 180.537C119.137 180.298 119.377 180.059 119.556 179.82C120.034 179.282 120.482 178.743 120.901 178.205C121.379 177.607 121.857 176.979 122.335 176.322C123.65 174.408 124.876 172.494 126.011 170.581C127.147 168.607 128.402 166.664 129.777 164.75C129.897 163.554 130.136 162.448 130.494 161.432C130.853 160.355 131.212 159.339 131.57 158.382C131.929 157.365 132.228 156.319 132.467 155.242C132.706 154.166 132.766 152.97 132.646 151.654C132.945 151.236 133.184 150.937 133.364 150.757C133.603 150.578 133.722 150.219 133.722 149.681V148.156Z" fill="#181818"/>
<path d="M199.533 160.804C199.174 161.342 198.965 161.94 198.905 162.598C198.845 163.255 198.815 163.853 198.815 164.392C198.815 165.109 198.815 165.827 198.815 166.544C198.875 167.202 198.905 167.86 198.905 168.518V169.863C198.785 170.282 198.606 170.7 198.367 171.119C198.128 171.538 197.949 171.956 197.829 172.375C196.992 174.587 196.574 176.8 196.574 179.013V179.192C196.275 179.91 195.976 180.567 195.677 181.165C195.438 181.763 195.199 182.361 194.96 182.959C194.721 183.498 194.542 184.096 194.422 184.753C194.302 185.351 194.273 186.069 194.332 186.906C193.496 188.999 192.39 190.913 191.015 192.647C189.64 194.321 188.295 196.055 186.98 197.849C185.725 198.328 184.559 198.956 183.484 199.733C182.467 200.511 181.481 201.378 180.525 202.334C178.672 202.932 176.849 203.62 175.055 204.398C173.262 205.175 171.648 206.221 170.214 207.537C169.078 207.657 167.942 207.836 166.807 208.075C165.671 208.314 164.565 208.673 163.489 209.152H162.413C161.875 209.152 161.487 209.032 161.248 208.793C160.471 209.211 159.664 209.51 158.827 209.69C157.99 209.809 157.153 209.869 156.316 209.869C155.241 209.869 154.165 209.809 153.089 209.69C152.073 209.51 151.027 209.331 149.951 209.152C149.353 208.314 148.516 207.686 147.44 207.268C146.364 206.789 145.408 206.341 144.571 205.922C142.838 203.53 141.582 201.228 140.805 199.016C140.028 196.743 139.221 194.202 138.384 191.391C138.504 190.554 138.713 189.747 139.012 188.969C139.311 188.132 139.43 187.235 139.371 186.278C140.447 183.169 141.851 180.358 143.585 177.847C145.378 175.275 147.41 172.823 149.682 170.491C149.682 170.132 149.741 169.833 149.861 169.594C150.04 169.355 150.07 168.996 149.951 168.518C150.01 168.578 150.13 168.607 150.309 168.607C150.787 168.607 151.086 168.488 151.206 168.249C151.325 167.95 151.355 167.621 151.296 167.262C153.447 165.887 155.39 164.302 157.123 162.508C158.917 160.714 160.949 159.219 163.22 158.023C163.4 157.485 163.699 157.036 164.117 156.677C164.535 156.319 164.864 155.9 165.103 155.422C167.016 154.883 168.749 154.076 170.303 153C171.858 151.923 173.501 150.967 175.235 150.129C176.191 149.591 177.088 149.232 177.925 149.053C178.821 148.814 179.778 148.575 180.794 148.335C181.152 148.216 181.481 148.126 181.78 148.066C182.079 148.007 182.408 147.977 182.766 147.977C183.842 147.977 184.888 148.186 185.904 148.605C186.92 148.963 187.967 149.143 189.042 149.143C189.341 149.143 189.58 149.143 189.76 149.143C189.999 149.083 190.238 149.023 190.477 148.963C191.493 150.219 192.778 151.176 194.332 151.834C194.691 152.731 195.109 153.508 195.588 154.166C196.126 154.824 196.664 155.481 197.201 156.139C197.739 156.737 198.218 157.425 198.636 158.202C199.114 158.92 199.413 159.787 199.533 160.804ZM190.567 165.468C190.567 165.169 190.537 164.9 190.477 164.661C189.879 164.481 189.311 164.242 188.773 163.943C188.235 163.644 187.638 163.495 186.98 163.495C186.562 163.495 186.143 163.584 185.725 163.764C185.665 163.345 185.486 163.046 185.187 162.867C184.948 162.687 184.649 162.538 184.29 162.418C183.992 162.239 183.663 162.119 183.304 162.059C183.005 161.94 182.736 161.76 182.497 161.521C182.318 161.043 182.109 160.564 181.87 160.086C181.69 159.548 181.332 159.159 180.794 158.92C180.256 159.458 179.628 159.907 178.911 160.265C178.194 160.564 177.446 160.863 176.669 161.162C175.952 161.461 175.235 161.82 174.517 162.239C173.86 162.657 173.292 163.166 172.814 163.764H171.2C170.841 164.422 170.333 164.93 169.676 165.289C169.018 165.588 168.45 166.036 167.972 166.634C167.016 167.113 166.119 167.71 165.283 168.428C164.505 169.086 163.728 169.803 162.951 170.581C162.174 171.298 161.397 172.046 160.62 172.823C159.903 173.601 159.126 174.318 158.289 174.976C157.512 176.651 156.645 178.116 155.689 179.371C154.792 180.567 153.926 181.793 153.089 183.049C152.312 184.305 151.624 185.68 151.027 187.175C150.489 188.61 150.22 190.404 150.22 192.557V193.454C150.22 193.753 150.249 194.052 150.309 194.351C151.086 195.188 151.714 196.085 152.192 197.042C152.73 197.999 153.597 198.687 154.792 199.105C155.988 199.584 157.243 199.793 158.558 199.733C159.933 199.673 161.248 199.823 162.503 200.182C165.372 199.643 168.122 198.776 170.752 197.58C173.442 196.325 175.982 194.83 178.373 193.095C178.732 192.796 179.15 192.497 179.628 192.198C180.106 191.84 180.495 191.481 180.794 191.122C181.093 190.823 181.332 190.494 181.511 190.135C181.75 189.777 181.989 189.448 182.228 189.149C182.706 188.371 183.244 187.594 183.842 186.816C184.44 186.039 185.067 185.321 185.725 184.664C186.024 183.348 186.412 182.092 186.891 180.896C187.369 179.641 187.847 178.415 188.325 177.219C188.803 176.023 189.192 174.797 189.491 173.541C189.849 172.285 190.029 170.97 190.029 169.594C190.029 169.295 189.999 168.966 189.939 168.607C189.939 168.249 189.909 167.92 189.849 167.621C190.328 166.963 190.567 166.245 190.567 165.468Z" fill="#181818"/>
<path d="M262.474 155.691V156.05C262.056 156.169 261.846 156.468 261.846 156.947C261.189 157.246 260.502 157.485 259.784 157.664C259.067 157.784 258.38 157.993 257.722 158.292C257.065 158.232 256.377 158.202 255.66 158.202C255.002 158.143 254.345 158.113 253.687 158.113C251.894 158.113 250.101 158.172 248.308 158.292C246.515 158.412 244.721 158.412 242.928 158.292C242.091 158.77 241.165 159.159 240.149 159.458C239.192 159.697 238.266 159.817 237.369 159.817C236.652 159.817 236.024 159.727 235.486 159.548C234.052 160.265 232.468 160.863 230.734 161.342C229.061 161.82 227.357 162.299 225.624 162.777C223.89 163.196 222.217 163.704 220.603 164.302C219.049 164.84 217.674 165.618 216.478 166.634C216.359 167.471 216.269 168.308 216.209 169.146C216.15 169.923 216.12 170.7 216.12 171.478C216.12 172.315 216.15 173.092 216.209 173.81C216.329 174.528 216.538 175.245 216.837 175.963C217.136 176.082 217.465 176.172 217.823 176.232C218.242 176.292 218.6 176.322 218.899 176.322C219.198 176.322 219.497 176.292 219.796 176.232C220.095 176.112 220.304 175.903 220.423 175.604C221.32 175.484 222.217 175.455 223.113 175.514C224.01 175.514 224.906 175.514 225.803 175.514C226.7 175.514 227.566 175.484 228.403 175.425C229.3 175.365 230.167 175.215 231.003 174.976C231.96 174.737 232.886 174.587 233.783 174.528C234.739 174.468 235.666 174.408 236.562 174.348C237.459 174.288 238.385 174.199 239.342 174.079C240.298 173.9 241.284 173.571 242.301 173.092C243.078 173.391 243.855 173.541 244.632 173.541C245.469 173.541 246.275 173.601 247.053 173.72C247.471 174.019 247.8 174.348 248.039 174.707C248.338 175.066 248.487 175.484 248.487 175.963C248.487 176.8 248.188 177.637 247.59 178.474C246.993 179.312 246.515 180.089 246.156 180.807H245.17C243.735 180.807 242.33 181.016 240.956 181.434C239.641 181.793 238.296 182.242 236.921 182.78C235.606 183.258 234.261 183.707 232.886 184.125C231.571 184.484 230.196 184.664 228.762 184.664C228.523 184.664 228.373 184.813 228.314 185.112C228.314 185.351 228.254 185.531 228.134 185.65C227.835 185.591 227.387 185.561 226.789 185.561C225.415 185.561 224.1 185.71 222.844 186.009C221.589 186.308 220.304 186.458 218.989 186.458C218.63 186.458 218.272 186.458 217.913 186.458C217.554 186.398 217.196 186.338 216.837 186.278C216.538 186.757 216.15 187.086 215.671 187.265C215.193 187.385 214.745 187.624 214.327 187.983C214.147 188.521 214.028 189.179 213.968 189.956C213.968 190.733 213.938 191.541 213.878 192.378C213.878 193.155 213.818 193.903 213.699 194.62C213.579 195.338 213.34 195.906 212.982 196.325C213.041 196.624 213.281 196.743 213.699 196.683C214.117 196.564 214.327 196.743 214.327 197.222C214.327 197.76 214.267 198.328 214.147 198.926C214.028 199.524 213.968 200.122 213.968 200.72C213.968 201.856 214.087 203.112 214.327 204.487C214.625 205.803 215.044 207.029 215.582 208.165C216.18 209.301 216.957 210.258 217.913 211.035C218.869 211.753 220.065 212.112 221.499 212.112C222.456 212.112 223.352 211.932 224.189 211.573C225.026 211.215 225.713 210.617 226.251 209.779L226.7 209.69C226.939 209.69 227.148 209.72 227.327 209.779C227.566 209.839 227.805 209.869 228.045 209.869C228.403 209.869 228.852 209.66 229.389 209.241C229.987 208.763 230.615 208.225 231.272 207.627C231.99 207.029 232.707 206.461 233.424 205.922C234.141 205.324 234.829 204.906 235.486 204.667C235.905 203.829 236.293 202.992 236.652 202.155C237.07 201.318 237.668 200.66 238.445 200.182V197.58C239.043 196.923 239.671 196.325 240.328 195.786C241.045 195.248 241.583 194.56 241.942 193.723C242.241 193.843 242.51 193.933 242.749 193.992C243.048 194.052 243.347 194.082 243.645 194.082C243.944 194.082 244.243 194.052 244.542 193.992C244.901 193.933 245.229 193.843 245.528 193.723C246.006 194.381 246.365 195.129 246.604 195.966C246.903 196.743 247.262 197.491 247.68 198.208C247.142 199.285 246.515 200.57 245.797 202.065C245.08 203.56 244.303 205.055 243.466 206.55C242.629 208.045 241.733 209.48 240.776 210.856C239.88 212.171 238.983 213.188 238.087 213.906C237.907 214.085 237.519 214.294 236.921 214.534C236.263 215.012 235.666 215.46 235.128 215.879C234.59 216.357 234.082 216.896 233.604 217.494C231.87 218.032 230.196 218.749 228.583 219.646C227.028 220.543 225.474 221.41 223.92 222.248C223.203 222.068 222.426 221.979 221.589 221.979C220.872 221.979 220.154 222.008 219.437 222.068C218.72 222.188 217.943 222.248 217.106 222.248C216.867 221.949 216.508 221.739 216.03 221.62C215.612 221.56 215.462 221.261 215.582 220.723C213.55 220.603 211.906 220.035 210.651 219.018C209.395 218.062 208.319 216.866 207.423 215.431C206.586 213.995 205.899 212.441 205.361 210.766C204.823 209.092 204.255 207.477 203.657 205.922V205.653C203.657 205.354 203.777 205.175 204.016 205.115C204.255 205.055 204.374 204.876 204.374 204.577C204.374 204.457 204.344 204.368 204.285 204.308C204.105 203.65 203.956 203.082 203.836 202.604C203.717 202.125 203.657 201.557 203.657 200.899C203.657 199.942 203.717 199.016 203.836 198.119C203.956 197.162 204.016 196.205 204.016 195.248C204.016 194.291 203.896 193.454 203.657 192.737C203.896 192.438 204.105 192.049 204.285 191.571C204.404 191.032 204.494 190.494 204.554 189.956C204.613 189.418 204.643 188.88 204.643 188.341C204.703 187.803 204.793 187.325 204.912 186.906C204.673 186.248 204.464 185.68 204.285 185.202C204.105 184.664 204.016 184.036 204.016 183.318V182.69C204.613 181.674 205.121 180.627 205.54 179.551C205.958 178.474 206.407 177.368 206.885 176.232V175.963C206.885 174.229 206.825 172.494 206.705 170.76C206.586 169.026 206.526 167.292 206.526 165.558V163.853C206.526 163.255 206.556 162.687 206.616 162.149C207.094 161.91 207.453 161.581 207.692 161.162C207.931 160.744 208.289 160.415 208.768 160.176H211.726L212.264 159.279C212.444 158.98 212.563 158.651 212.623 158.292C213.281 158.113 213.908 157.873 214.506 157.574C215.163 157.216 215.761 156.857 216.299 156.498C217.136 156.02 217.883 155.601 218.541 155.242C219.258 154.824 219.945 154.495 220.603 154.256C221.32 153.957 222.067 153.717 222.844 153.538C223.621 153.359 224.518 153.209 225.534 153.09C226.012 153.09 226.311 153 226.431 152.82C226.61 152.641 226.849 152.432 227.148 152.193C227.865 152.312 228.583 152.432 229.3 152.551C230.017 152.611 230.734 152.641 231.452 152.641C232.886 152.641 234.231 152.372 235.486 151.834C237.28 151.834 239.043 151.804 240.776 151.744C242.57 151.684 244.363 151.654 246.156 151.654C247.71 151.654 249.264 151.714 250.818 151.834C252.372 151.953 253.897 152.163 255.391 152.462C255.929 152.282 256.527 152.193 257.184 152.193C257.901 152.193 258.619 152.282 259.336 152.462C260.113 152.581 260.86 152.581 261.577 152.462C261.637 153.119 261.787 153.688 262.026 154.166C262.325 154.585 262.474 155.093 262.474 155.691Z" fill="#181818"/>
</svg>
